<svg xmlns="http://www.w3.org/2000/svg" xmlns:xlink="http://www.w3.org/1999/xlink" viewBox="0 0 1200 900"><defs><style>.cls-1,.cls-8{fill:none;stroke-miterlimit:10;}.cls-1{stroke:#e52421;}.cls-2{fill:#ffd5c6;}.cls-3{fill:#631c00;}.cls-4{fill:#fff;}.cls-5{clip-path:url(#clip-path);}.cls-6{fill:#cfada0;}.cls-7{fill:#e3e3e3;}.cls-8{stroke:#000;}</style><clipPath id="clip-path"><circle class="cls-1" cx="861.25" cy="285.25" r="191.75"/></clipPath></defs><title>f1</title><g id="Capa_1" data-name="Capa 1"><path class="cls-2" d="M369.21,778.48c-.44,1.32,0,26.31,0,26.31l-48.68,18.42L365.7,833.3l70.23-16,4.76-30Z"/><path d="M365.7,833.38h0l-45.43-10.15.25-.09,48.63-18.4c0-1.63-.43-25,0-26.28l0-.06h.07l71.56,8.78v.09L436,817.36Zm-44.9-10.19,44.9,10,70.16-16,4.74-29.91-71.33-8.75c-.41,1.86,0,26,0,26.22v.06l-.06,0Z"/><polygon class="cls-2" points="263.52 796.46 216.6 837.68 263.52 843.39 313.51 819.92 313.51 791.2 263.52 796.46"/><path d="M263.53,843.47h0l-47.1-5.72.13-.11,46.94-41.24h0l50.08-5.27V820l0,0Zm-46.75-5.84,46.73,5.67,49.92-23.43V791.29l-49.88,5.25Z"/><polygon points="244.27 391.92 252.61 466.92 219.27 683.58 244.27 808.57 410.94 791.9 435.93 666.91 373.17 385.95 244.27 391.92"/><path d="M244.21,808.66v-.07l-25-125v0l33.34-216.65-8.35-75.07h.09l129-6,0,.07,62.77,281h0L411,792h-.06ZM219.35,683.57l25,124.92,166.53-16.66,25-124.92L373.1,386,244.36,392l8.33,74.93h0Z"/><polygon class="cls-3" points="519.26 333.59 585.93 475.25 635.93 758.57 410.94 808.57 377.6 800.24 385.94 575.25 460.93 383.58 519.26 333.59"/><path d="M410.93,808.65l-33.41-8.35v-.07l8.34-225,75-191.7,58.41-50.06.05.09L586,475.23l50,283.4-.07,0Zm-33.24-8.47,33.25,8.31,224.9-50-50-283.24L519.24,333.71,461,383.63,386,575.26Z"/><polygon class="cls-2" points="241.55 401.32 236.31 428 196.77 447.53 196.77 456.1 209.64 450.25 214.88 456.1 207.73 473.25 196.77 480.4 213.92 480.4 238.22 469.92 259.65 450.25 257.27 401.32 241.55 401.32"/><path d="M213.94,480.48H196.51l.22-.15,10.94-7.13,7.11-17.08-5.16-5.77-12.93,5.88v-8.75l.05,0,39.5-19.52,5.25-26.7h15.86v.08l2.38,49,0,0L238.25,470Zm-16.9-.16h16.87l24.26-10.47,21.4-19.63L257.2,401.4H241.62l-5.24,26.65,0,0-39.5,19.51V456l12.81-5.83,5.31,5.94,0,0-7.16,17.17,0,0Z"/><path class="cls-2" d="M334.44,456.1,294,483.26l15.25,9.05-6.6,20-21,18.58s17.3,2.86,21,2.38,35.65-23.34,36.13-24.77,16.2-47.63,16.2-47.63Z"/><path d="M301.53,533.41c-5.17,0-19.82-2.41-20-2.44l-.16,0,21.15-18.67,6.56-19.93-15.3-9.08.11-.07L334.43,456h0L355,460.81l0,.08c-.16.46-15.72,46.22-16.19,47.64s-32.3,24.32-36.2,24.82A8,8,0,0,1,301.53,533.41Zm-19.79-2.57c1.79.29,17.38,2.8,20.85,2.35,1.89-.24,11.18-6.36,19.25-12,8.9-6.23,16.59-12,16.81-12.7l16.17-47.56-20.36-4.73L294.1,483.25l15.19,9,0,.06-6.6,20h0Z"/><path class="cls-2" d="M395.12,285.72V226.1l-17.52-8.77-22.67-49.1,22.67-57h50.84L446,151.57l-10.11,64.89Z"/><path d="M395,286V226.15l-17.5-8.76v0l-22.69-49.13v0l22.7-57h50.94l0,0,17.61,40.35v0L436,216.5Zm-17.38-68.74,17.54,8.78v59.38l40.66-69L446,151.59l-17.58-40.27H377.66L355,168.23Z"/><path class="cls-2" d="M302.6,198.48l-21-52.17-30.24-41.2-41.21,26.3L204,191.92l15.28,13.14L228.21,227l17-7L232,298.87s63.13-28.93,64-31.56Z"/><path d="M231.94,299l0-.14,13.13-78.77-16.92,7,0-.07-8.93-21.91L203.9,192v0l6.14-60.56,0,0L251.35,105l0,.06,30.24,41.21,21.05,52.2v0l-6.56,68.82c-.88,2.65-61.47,30.45-64.05,31.63Zm13.35-79.17,0,.15-13.13,78.76c3.29-1.51,63-28.95,63.83-31.46l6.55-68.79-21-52.15-30.18-41.13L210.2,131.46l-6.13,60.43L219.35,205l8.91,21.84Z"/><polygon class="cls-4" points="302.61 183.59 360.94 225.26 377.6 266.92 385.94 350.25 360.94 475.25 294.27 458.58 294.27 408.58 235.94 408.58 219.27 275.25 244.27 225.26 244.27 266.92 302.61 183.59"/><path d="M361,475.35l-66.81-16.71v-50H235.87v-.07L219.19,275.24l25.16-50.32v41.75l58.24-83.19L361,225.21v0l16.67,41.68L386,350.26h0Zm-66.65-16.83,66.53,16.63,25-124.9-8.33-83.31-16.66-41.63L302.62,183.7l-58.43,83.47V225.59l-24.83,49.68L236,408.5h58.34Z"/><path class="cls-2" d="M423.19,401.32c-4.4,2.8-45.59,27.17-45.59,27.17l-18.34-13.58-24,2.79-5.6,32.55,25.24-2.58s15.52,13.58,17.51,13.58,76.32-38.46,73.52-39.4S423.19,401.32,423.19,401.32Z"/><path d="M372.44,461.33c-2,0-16.61-12.76-17.54-13.58l-25.3,2.59v-.1l5.61-32.61h.06l24-2.8,0,0,18.3,13.56c1.58-.94,41.26-24.42,45.53-27.15l.06,0,0,0c.2.2,20,19.58,22.75,20.51a.17.17,0,0,1,.12.2c0,.22-.14.89-11.43,7.23-7.95,4.47-17.89,9.75-24.82,13.4C393,451.46,373.49,461.33,372.44,461.33ZM355,447.59l0,0c.15.14,15.52,13.56,17.46,13.56.9,0,18-8.54,36.53-18.29,17-8.95,35.71-19.13,36.94-20.84a.26.26,0,0,0,0-.11h0c-2.75-.93-21.46-19.22-22.76-20.5-4.62,2.93-45.13,26.9-45.54,27.14l0,0L359.24,415l-23.89,2.79-5.56,32.38Z"/><path class="cls-4" d="M535.93,350.25l-25-100-75-58.34-50,91.67s8.33,108.33,16.66,108.33h25l-16.67,16.66,58.34,41.67,25-58.33Z"/><path d="M469.3,450.37l-.08-.06-58.41-41.72.07-.06L427.41,392H402.6c-3.5,0-7.38-18.25-11.53-54.24-3.09-26.77-5.19-53.9-5.21-54.17v0l50-91.75.07.06,75,58.35v0l25,100,0,0L494.33,392Zm-58.24-41.8,58.17,41.56,25-58.27,41.63-41.63-25-99.93L436,192,386,283.61c.07.93,2.15,27.7,5.2,54.13,4.09,35.39,8,54.1,11.38,54.1h25.19l-.13.13Z"/><circle class="cls-3" cx="861.25" cy="285.25" r="191.75"/><g class="cls-5"><path class="cls-2" d="M868.32,256.35l-14.1,60.74-35.8,35.8-17.9,25.49s9.77,7.05,11.93,4.88S826,369.16,826,369.16l8.41-17.35v36.34l-12.74,38.51,4.88,5.42,3.79-3.8,4.07.54,6.78-14.1,3.8-3.25,9.76-9.22,7.59-7.05,11.94-18.44,6-39.6,31.46-73.22L871,244.42Z"/><polygon class="cls-2" points="810.83 248.21 785.88 268.82 766.35 299.34 750.08 304.62 731.64 314.93 725.67 314.93 720.79 321.43 705.61 321.43 705.61 313.84 725.67 284.82 732.73 267.74 727.3 260.69 712.12 264.48 694.76 255.26 703.98 248.21 725.13 248.21 763.65 241.65 772.86 240.08 820.05 212.96 810.83 248.21"/><polygon class="cls-6" points="911.71 260.87 932.34 277.43 979.17 234.6 989.57 220.51 1022.37 262.3 940.14 316.22 914.98 324.76 861.5 319.37 852.21 309.78 855 306.48 853.73 300.9 857.79 294.55 856.12 289.98 860.84 282.37 861.09 274.75 907.04 267.2 911.71 260.87"/><polygon class="cls-6" points="773.47 244.42 761.94 239.1 770.26 235.9 776.03 230.14 776.03 224.7 785.95 222.14 783.71 212.96 792.35 206.14 801.95 216.38 797.79 223.1 804.19 226.94 802.59 233.02 794.91 236.54 788.51 239.75 781.15 238.15 773.47 244.42"/><polygon class="cls-4" points="786.24 152.03 794.3 188.57 773.88 215.98 829.23 231.03 844.28 225.28 839.45 238.55 901.25 263.81 923.82 263.81 929.74 241.78 954.46 217.59 963.59 197.71 873.9 174.96 869.19 142.03 786.24 152.03"/><path class="cls-4" d="M783.31,152s-32.93-76.46-25.88-75.28,261.75,16.47,261.75,16.47l2.94,120-96.46,12.35"/><polygon class="cls-7" points="998.8 152.03 979.81 206.14 959.17 229.48 959.17 244.42 1036.79 284.81 1078.9 220.51 998.8 152.03"/></g><circle class="cls-1" cx="861.25" cy="285.25" r="191.75"/><circle class="cls-8" cx="861.25" cy="285.25" r="191.75"/></g></svg>