<?xml version="1.0" encoding="utf-8"?>
<!-- Generator: Adobe Illustrator 22.1.0, SVG Export Plug-In . SVG Version: 6.00 Build 0)  -->
<svg version="1.1" xmlns="http://www.w3.org/2000/svg" xmlns:xlink="http://www.w3.org/1999/xlink" x="0px" y="0px"
	 viewBox="0 0 1200 900" style="enable-background:new 0 0 1200 900;" xml:space="preserve">
<style type="text/css">
	.st0{fill:#FFD5C6;}
	.st1{fill:#631C00;}
	.st2{fill:#FFFFFF;}
	.st3{clip-path:url(#SVGID_2_);fill:#FFD5C6;}
	.st4{clip-path:url(#SVGID_2_);fill:#CFADA0;}
	.st5{clip-path:url(#SVGID_2_);fill:none;stroke:#614316;stroke-miterlimit:10;}
	.st6{clip-path:url(#SVGID_2_);fill:#FFFFFF;}
	.st7{clip-path:url(#SVGID_2_);fill:#E3E3E3;}
	.st8{fill:#F83F1D;}
	.st9{opacity:0.8;fill:#FFD5C6;stroke:#000000;stroke-width:0.5;stroke-miterlimit:10;}
	.st10{opacity:0.11;fill:#474747;}
	.st11{opacity:6.000000e-02;fill:#474747;}
	.st12{opacity:7.000000e-02;fill:#474747;}
	.st13{opacity:9.000000e-02;fill:#474747;}
	.st14{opacity:0.15;fill:#474747;}
	.st15{opacity:0.8;fill:#FFFFFF;stroke:#000000;stroke-width:0.5;stroke-miterlimit:10;}
	.st16{opacity:0.13;fill:#474747;}
	.st17{opacity:0.8;fill:#631C00;}
	.st18{fill:none;stroke:#000000;stroke-width:0.25;stroke-miterlimit:10;}
	.st19{opacity:0.4;}
	.st20{fill:#5A5A5A;}
	.st21{fill:none;stroke:#000000;stroke-width:0.5;stroke-miterlimit:10;}
</style>
<g id="Capa_2">
</g>
<g id="Capa_1">
	<g>
		<g>
			<g>
				<path class="st0" d="M369.2,778.5c-0.4,1.3,0,26.3,0,26.3l-48.7,18.4l45.2,10.1l70.2-16l4.8-30L369.2,778.5z"/>
				<path d="M365.7,833.4L365.7,833.4l-45.4-10.1l0.2-0.1l48.6-18.4c0-1.6-0.4-25,0-26.3l0-0.1l0.1,0l71.6,8.8l0,0.1l-4.8,30.1
					L365.7,833.4z M320.8,823.2l44.9,10l70.2-16l4.7-29.9l-71.3-8.8c-0.4,1.9,0,26,0,26.2l0,0.1l-0.1,0L320.8,823.2z"/>
			</g>
			<g>
				<polygon class="st0" points="263.5,796.5 216.6,837.7 263.5,843.4 313.5,819.9 313.5,791.2 				"/>
				<path d="M263.5,843.5L263.5,843.5l-47.1-5.7l0.1-0.1l46.9-41.2l0,0l50.1-5.3V820l0,0L263.5,843.5z M216.8,837.6l46.7,5.7
					l49.9-23.4v-28.6l-49.9,5.3L216.8,837.6z"/>
			</g>
			<g>
				<polygon points="244.3,391.9 252.6,466.9 219.3,683.6 244.3,808.6 410.9,791.9 435.9,666.9 373.2,386 				"/>
				<path d="M244.2,808.7L244.2,808.7l-25-125.1l0,0l33.3-216.6l-8.3-75.1l0.1,0l129-6l0,0.1l62.8,281l0,0L411,792l-0.1,0
					L244.2,808.7z M219.4,683.6l25,124.9l166.5-16.7l25-124.9L373.1,386l-128.7,6l8.3,74.9l0,0L219.4,683.6z"/>
			</g>
			<g>
				<polygon class="st1" points="519.3,333.6 585.9,475.2 635.9,758.6 410.9,808.6 377.6,800.2 385.9,575.2 460.9,383.6 				"/>
				<path d="M410.9,808.7l-33.4-8.4l0-0.1l8.3-225l75-191.7l58.4-50.1l0,0.1L586,475.2l50,283.4l-0.1,0L410.9,808.7z M377.7,800.2
					l33.3,8.3l224.9-50l-50-283.2l-66.6-141.6L461,383.6l-75,191.6L377.7,800.2z"/>
			</g>
			<g>
				<polygon class="st0" points="241.6,401.3 236.3,428 196.8,447.5 196.8,456.1 209.6,450.2 214.9,456.1 207.7,473.3 196.8,480.4 
					213.9,480.4 238.2,469.9 259.7,450.2 257.3,401.3 				"/>
				<path d="M213.9,480.5h-17.4l0.2-0.1l10.9-7.1l7.1-17.1l-5.2-5.8l-12.9,5.9v-8.7l0,0l39.5-19.5l5.2-26.7h15.9l0,0.1l2.4,49l0,0
					L238.2,470L213.9,480.5z M197,480.3h16.9l24.3-10.5l21.4-19.6l-2.4-48.8h-15.6l-5.2,26.7l0,0l-39.5,19.5v8.4l12.8-5.8l5.3,5.9
					l0,0l-7.2,17.2l0,0L197,480.3z"/>
			</g>
			<g>
				<path class="st0" d="M334.4,456.1L294,483.3l15.2,9.1l-6.6,20l-21,18.6c0,0,17.3,2.9,21,2.4c3.7-0.5,35.6-23.3,36.1-24.8
					c0.5-1.4,16.2-47.6,16.2-47.6L334.4,456.1z"/>
				<path d="M301.5,533.4c-5.2,0-19.8-2.4-20-2.4l-0.2,0l21.1-18.7l6.6-19.9l-15.3-9.1l0.1-0.1l40.5-27.2l0,0l20.6,4.8l0,0.1
					c-0.2,0.5-15.7,46.2-16.2,47.6c-0.5,1.4-32.3,24.3-36.2,24.8C302.3,533.4,302,533.4,301.5,533.4z M281.7,530.8
					c1.8,0.3,17.4,2.8,20.9,2.4c1.9-0.2,11.2-6.4,19.2-12c8.9-6.2,16.6-12,16.8-12.7c0.5-1.4,15.4-45.3,16.2-47.6l-20.4-4.7
					l-40.4,27.1l15.2,9l0,0.1l-6.6,20l0,0L281.7,530.8z"/>
			</g>
			<g>
				<path class="st0" d="M395.1,285.7c0-4.4,0-59.6,0-59.6l-17.5-8.8l-22.7-49.1l22.7-57h50.8l17.6,40.3l-10.1,64.9L395.1,285.7z"/>
				<path d="M395,286v-59.9l-17.5-8.8l0,0l-22.7-49.1l0,0l22.7-57h50.9l0,0l17.6,40.4l0,0L436,216.5L395,286z M377.7,217.3l17.5,8.8
					v59.4l40.7-69l10.1-64.8l-17.6-40.3h-50.7L355,168.2L377.7,217.3z"/>
			</g>
			<g>
				<path class="st0" d="M302.6,198.5l-21-52.2l-30.2-41.2l-41.2,26.3l-6.1,60.5l15.3,13.1l8.9,21.9l17-7L232,298.9
					c0,0,63.1-28.9,64-31.6L302.6,198.5z"/>
				<path d="M231.9,299l0-0.1l13.1-78.8l-16.9,7l0-0.1l-8.9-21.9L203.9,192l0,0l6.1-60.6l0,0l41.3-26.3l0,0.1l30.2,41.2l21.1,52.2
					l0,0l-6.6,68.8c-0.9,2.7-61.5,30.4-64.1,31.6L231.9,299z M245.3,219.8l0,0.1l-13.1,78.8c3.3-1.5,63-28.9,63.8-31.5l6.6-68.8
					l-21-52.1l-30.2-41.1l-41.1,26.2l-6.1,60.4l15.3,13.1l8.9,21.8L245.3,219.8z"/>
			</g>
			<g>
				<polygon class="st2" points="302.6,183.6 360.9,225.3 377.6,266.9 385.9,350.3 360.9,475.2 294.3,458.6 294.3,408.6 
					235.9,408.6 219.3,275.3 244.3,225.3 244.3,266.9 				"/>
				<path d="M361,475.3l-66.8-16.7v-50h-58.3l0-0.1l-16.7-133.4l25.2-50.3v41.7l58.2-83.2l58.4,41.7l0,0l16.7,41.7l8.3,83.3l0,0
					L361,475.3z M294.4,458.5l66.5,16.6l25-124.9l-8.3-83.3l-16.7-41.6l-58.2-41.6l-58.4,83.5v-41.6l-24.8,49.7L236,408.5h58.3
					V458.5z"/>
			</g>
			<g>
				<path class="st0" d="M423.2,401.3c-4.4,2.8-45.6,27.2-45.6,27.2l-18.3-13.6l-24,2.8l-5.6,32.5l25.2-2.6c0,0,15.5,13.6,17.5,13.6
					s76.3-38.5,73.5-39.4C443.2,420.9,423.2,401.3,423.2,401.3z"/>
				<path d="M372.4,461.3c-2,0-16.6-12.8-17.5-13.6l-25.3,2.6l0-0.1l5.6-32.6l0.1,0l24-2.8l0,0l18.3,13.6
					c1.6-0.9,41.3-24.4,45.5-27.1l0.1,0l0,0c0.2,0.2,20,19.6,22.7,20.5c0.1,0,0.1,0.1,0.1,0.2c0,0.2-0.1,0.9-11.4,7.2
					c-8,4.5-17.9,9.7-24.8,13.4C393,451.5,373.5,461.3,372.4,461.3z M355,447.6L355,447.6c0.2,0.2,15.5,13.6,17.5,13.6
					c0.9,0,18-8.5,36.5-18.3c17-9,35.7-19.1,36.9-20.8c0.1-0.1,0.1-0.1,0.1-0.1l0,0c0,0,0,0,0,0c-2.7-0.9-21.5-19.2-22.8-20.5
					c-4.6,2.9-45.1,26.9-45.5,27.1l0,0L359.2,415l-23.9,2.8l-5.6,32.4L355,447.6z"/>
			</g>
			<g>
				<path class="st2" d="M535.9,350.3l-25-100l-75-58.3l-50,91.7c0,0,8.3,108.3,16.7,108.3s25,0,25,0l-16.7,16.7l58.3,41.7l25-58.3
					L535.9,350.3z"/>
				<path d="M469.3,450.4L469.3,450.4l-58.5-41.8l0.1-0.1l16.5-16.5h-24.8c-3.5,0-7.4-18.2-11.5-54.2c-3.1-26.8-5.2-53.9-5.2-54.2
					l0,0l0,0l50-91.7l0.1,0.1l75,58.3l0,0l25,100l0,0L494.3,392L469.3,450.4z M411.1,408.6l58.2,41.6l25-58.3l41.6-41.6l-25-99.9
					L436,192L386,283.6c0.1,0.9,2.2,27.7,5.2,54.1c4.1,35.4,8,54.1,11.4,54.1h25.2l-0.1,0.1L411.1,408.6z"/>
			</g>
		</g>
	</g>
	<g>
		<circle class="st1" cx="861.2" cy="285.2" r="191.8"/>
	</g>
	<g>
		<defs>
			<circle id="SVGID_1_" cx="861.2" cy="285.2" r="191.8"/>
		</defs>
		<clipPath id="SVGID_2_">
			<use xlink:href="#SVGID_1_"  style="overflow:visible;"/>
		</clipPath>
		<path class="st3" d="M868.3,256.3l-14.1,60.7l-35.8,35.8l-17.9,25.5c0,0,9.8,7.1,11.9,4.9c2.2-2.2,13.6-14.1,13.6-14.1l8.4-17.4
			v36.3l-12.7,38.5l4.9,5.4l3.8-3.8l4.1,0.5l6.8-14.1l3.8-3.3l9.8-9.2l7.6-7.1l11.9-18.4l6-39.6l31.5-73.2L871,244.4L868.3,256.3z"
			/>
		<polygon class="st3" points="810.8,248.2 785.9,268.8 766.4,299.3 750.1,304.6 731.6,314.9 725.7,314.9 720.8,321.4 705.6,321.4 
			705.6,313.8 725.7,284.8 732.7,267.7 727.3,260.7 712.1,264.5 694.8,255.3 704,248.2 725.1,248.2 763.6,241.6 772.9,240.1 
			820,213 		"/>
		<polygon class="st4" points="911.7,260.9 932.3,277.4 979.2,234.6 989.6,220.5 1022.4,262.3 940.1,316.2 915,324.8 861.5,319.4 
			852.2,309.8 855,306.5 853.7,300.9 857.8,294.6 856.1,290 860.8,282.4 861.1,274.8 907,267.2 		"/>
		<polygon class="st4" points="773.5,244.4 761.9,239.1 770.3,235.9 776,230.1 776,224.7 785.9,222.1 783.7,213 792.4,206.1 
			802,216.4 797.8,223.1 804.2,226.9 802.6,233 794.9,236.5 788.5,239.7 781.1,238.1 		"/>
		<polygon class="st6" points="786.2,152 794.3,188.6 773.9,216 829.2,231 844.3,225.3 839.4,238.6 901.3,263.8 923.8,263.8 
			929.7,241.8 954.5,217.6 963.6,197.7 873.9,175 869.2,142 		"/>
		<path class="st6" d="M783.3,152c0,0-32.9-76.5-25.9-75.3s261.7,16.5,261.7,16.5l2.9,120l-96.5,12.4"/>
		<polygon class="st7" points="998.8,152 979.8,206.1 959.2,229.5 959.2,244.4 1036.8,284.8 1078.9,220.5 		"/>
	</g>
	<circle class="st21" cx="861.2" cy="285.2" r="191.8"/>
</g>
</svg>
