<svg xmlns="http://www.w3.org/2000/svg" viewBox="0 0 1200 4374"><defs><style>.cls-1,.cls-13{fill:#631c00;}.cls-1,.cls-2,.cls-3,.cls-4{stroke:#474747;stroke-miterlimit:10;stroke-width:0.3px;}.cls-3,.cls-5{fill:#ffd5c6;}.cls-11,.cls-4{fill:#fff;}.cls-11,.cls-5{opacity:0.8;}.cls-10,.cls-12,.cls-6,.cls-7,.cls-8,.cls-9{fill:#212121;}.cls-6{opacity:0.11;}.cls-7{opacity:0.06;}.cls-8{opacity:0.07;}.cls-9{opacity:0.09;}.cls-10{opacity:0.15;}.cls-12{opacity:0.13;}.cls-13{opacity:0.79;}.cls-14{fill:#e8403d;}</style></defs><title>f1</title><g id="Capa_1" data-name="Capa 1"><path class="cls-1" d="M375.63,211.85C375.63,216.23,402,257,402,257l-13.17,45.76,6.27,94.66-30.71,46.38-87.77-11.91L286,331.32l53.28-71.21L333,235Z"/><path class="cls-2" d="M364.36,443.83h0l-87.8-11.91v0L286,331.3h0l53.27-71.19L333,235l0,0,42.69-23.22v.07c0,4.32,26.06,44.7,26.32,45.11h0v0l-13.16,45.75,6.27,94.67h0Zm-87.73-12,87.7,11.9L395,397.39l-6.27-94.65h0L401.91,257c-.62-1-26.07-40.44-26.32-45.08l-42.54,23.15,6.26,25.06v0L286,331.33Z"/><polygon class="cls-2" points="161.88 250.15 151.05 435.05 233.73 425.21 265.23 334.66 226.84 246.08 224.37 227.58 162.5 235.06 161.88 250.15"/><path class="cls-2" d="M151,435.1v-.05l10.83-184.9.63-15.12h0l61.91-7.49v0l2.47,18.5,38.39,88.59h0l-31.5,90.58h0Zm11.53-200-.62,15.05L151.1,435l82.6-9.83,31.48-90.52L226.8,246.08l-2.46-18.46Z"/><path class="cls-3" d="M163.06,152.77l-1.72-15.15s-2.75-11.37-2.75-12.75,18.6-15.5,18.6-15.5l18.26,3.44,9.3,21-3.81,6.66,5.19,12.28-13.78,14.82Z"/><path class="cls-2" d="M192.36,167.64l0,0L163,152.8v0l-1.73-15.16c-.11-.46-2.75-11.38-2.75-12.75s17.86-15,18.62-15.54h0l18.28,3.45v0l9.31,21v0L201,140.5l5.18,12.28v0ZM163.1,152.75l29.24,14.79,13.74-14.77-5.18-12.28v0l3.8-6.65-9.29-21-18.22-3.44c-6.43,4.88-18.57,14.39-18.57,15.46,0,1.36,2.72,12.62,2.75,12.74Z"/><polygon class="cls-3" points="308.24 167.59 290.38 151.04 290.38 128.47 308.24 114.06 329.87 125.34 329.87 164.83 308.24 167.59"/><path class="cls-2" d="M308.23,167.63h0l-17.87-16.56V128.45h0L308.24,114h0l21.65,11.29v39.56h0ZM290.41,151l17.84,16.53,21.58-2.75V125.36L308.25,114.1l-17.84,14.39Z"/><path class="cls-3" d="M233.33,122.72c-.76-1.62-2.72-7.17-2.41-8.67s8-12.87,8-12.87,16.43-1.84,14.37,0-3.6,51.68-3.6,51.68Z"/><path class="cls-2" d="M249.72,153l-.07-.13L233.3,122.73c-.76-1.6-2.73-7.19-2.42-8.68s7.69-12.43,8-12.89h0c.58-.06,14-1.56,14.58-.34,0,.12,0,.26-.18.41-2,1.81-3.57,51.16-3.59,51.65ZM233.37,122.7l16.28,30c0-1.44.43-13.2,1-25,.86-16.85,1.73-25.78,2.59-26.56.14-.12.19-.23.16-.32-.42-.93-9.64-.15-14.48.39-.32.47-7.68,11.4-8,12.84S232.62,121.1,233.37,122.7Z"/><path class="cls-3" d="M226.31,159.94c0-1.54-1.54-31.07,0-32s14.45-16.62,14.45-16.62l8.93,17.54-6.16,19.07-10.2,24.3Z"/><path class="cls-2" d="M233.34,172.33l0-.07-7-12.31h0c0-.26-.05-1.29-.11-2.86-.16-3.83-.46-11-.55-17.19-.11-7.72.11-11.64.68-12,1.51-.91,14.31-16.44,14.44-16.6l0,0,0,.06,8.93,17.54v0L243.57,148Zm-7-12.4,7,12.22,10.17-24.22,6.14-19.06-8.88-17.46c-.92,1.11-12.93,15.67-14.43,16.57-1.26.76-.41,21.35-.09,29.1C226.3,158.63,226.34,159.65,226.35,159.93Z"/><path class="cls-4" d="M157,239.55s30.44,8.48,32.94,7,41.91-13,41.91-13l-8-28.44,29.42-33.57L227,153l-.31-12.5-21.53,5.74-2.47,8.61-19.29,2.41-23.08-8.95L148.6,191.36Z"/><path class="cls-2" d="M188.81,246.75c-6,0-30.67-6.84-31.81-7.16h0v0l-8.43-48.2h0l11.72-43.11,0,0,23.07,9,19.26-2.4,2.47-8.61h0l21.58-5.75v.05L227,153l26.32,18.58,0,0-29.4,33.56,8,28.45h0c-.4.12-39.44,11.49-41.9,13A2.48,2.48,0,0,1,188.81,246.75Zm-31.76-7.23c1,.28,30.46,8.44,32.88,7s40.46-12.55,41.88-13l-8-28.42v0l29.39-33.53L227,153v0l-.31-12.46-21.46,5.72-2.47,8.62h0l-19.3,2.41h0l-23-8.94-11.7,43Z"/><polygon class="cls-4" points="324.85 250.15 383.15 216.86 366.85 162.95 336.76 149.79 307.93 160.44 274.08 167.59 249.63 144.14 233.33 162.32 259.66 184.89 294.14 201.81 324.85 250.15"/><path class="cls-2" d="M324.84,250.2l0,0-30.71-48.32-34.48-16.93-26.35-22.59,0,0,16.33-18.21,0,0,24.43,23.43,33.83-7.15,28.85-10.66h0l30.11,13.17v0l16.31,53.94h0Zm-65.16-65.34,34.48,16.92h0l30.7,48.31,58.23-33.26L366.82,163l-30.06-13.15-28.82,10.65-33.88,7.15h0L249.63,144.2l-16.24,18.12Z"/><path class="cls-2" d="M825.8,3742.22c-.66,2-19.17,243.21-19.17,243.21l190.34-3.3,35.69-17.18-13.88-134.83-47.64-97.81s-85.2-15.86-93.79-13.22S825.8,3742.22,825.8,3742.22Z"/><path class="cls-2" d="M806.47,3985.59v-.17c.76-9.85,18.52-241.27,19.18-243.24l0-.06.05,0c.43-.21,43.07-20.53,51.58-23.14s90.38,12.57,93.86,13.21l.08,0,0,.06,47.65,97.87L1032.82,3965,997,3982.28Zm19.46-243.26c-.84,4.7-18.56,235.5-19.13,243l190.14-3.3,35.56-17.12-13.87-134.69L971,3732.45c-2.95-.55-85.3-15.77-93.65-13.21S827.85,3741.42,825.93,3742.33Z"/><path class="cls-5" d="M901.09,3835.79l-15.25-34.93s-17.22-23.13-16.73-24.6,12.3-39.37,12.3-39.37l12.79,11.81-2.89,26.57,22.57,26.57,14.53,33.95Z"/><polygon class="cls-6" points="1025.76 2115.11 1061.51 2058.74 1069.64 2019.73 1097.27 2032.74 1045.84 2137.06 1025.76 2115.11"/><polygon class="cls-3" points="850.1 513.94 862.2 552.9 840.03 574.4 877.65 574.4 901.16 560.97 877.65 513.94 850.1 513.94"/><path class="cls-2" d="M877.66,574.46H839.88l.11-.1,22.14-21.47-12.11-39h27.66l0,0L901.24,561Zm-37.48-.12h37.45l23.45-13.4L877.61,514H850.19l12.07,38.92,0,0Z"/><path class="cls-1" d="M829.61,287.28c1.32-.44,59.24,2.63,59.24,2.63l89.08,103.56-49.15,58.8,5.27,48.27s-118,70.64-118.48,69.33-18-97.42-18-97.42L802,411l21.5-102.68Z"/><path class="cls-2" d="M815.59,569.94h0a.1.1,0,0,1-.06-.05c-.43-1.31-17.27-93.5-18-97.43h0L801.91,411l21.5-102.69,6.15-21.1h0c1.31-.44,56.9,2.51,59.26,2.63h0l0,0L978,393.47l0,0-49.13,58.78,5.26,48.28,0,0C929.33,503.43,818.18,569.94,815.59,569.94Zm0-.11h0c2.49,0,115.85-67.83,118.35-69.33l-5.26-48.25,0,0,49.11-58.76-89-103.5c-1.48-.08-57.23-3-59.16-2.64l-6.13,21L802,411l-4.39,61.42C797.89,473.81,815.05,567.74,815.62,569.83Z"/><path class="cls-2" d="M575.23,345.18c-1.68,0-29.15,45.41-29.15,45.41l14.58,62.79L519.79,581.61l95.26-7.21,7.79-92.59v82.45l57.75,31.38,42.07-11.86s-9.78-132.34-10.87-135.59-39-103-39-103Z"/><path class="cls-2" d="M680.58,595.71h0l-57.78-31.41v-81l-7.67,91.21h-.05l-95.36,7.22,0-.08L560.6,453.38,546,390.58v0c1.12-1.86,27.51-45.44,29.21-45.44h97.54l0,0c.38,1,38,99.79,39.05,103s10.77,134.29,10.87,135.61v.05h0ZM622.9,564.22l57.7,31.36,42-11.84c-.24-3.17-9.8-132.35-10.86-135.54s-38.11-100.53-39-103H575.24c-1.31,0-19.6,29.66-29.1,45.36l14.58,62.79h0L519.87,581.55,615,574.34l7.79-92.53h.12Z"/><path class="cls-3" d="M568,246.5c0-4.61-10.1-28-10.1-28l5-29.16,15.7-7.85,34.2,11.78,18.5,65-19.62,60Z"/><path class="cls-2" d="M611.69,318.41l-.06-.11-43.74-71.78v0c0-4.55-10-27.77-10.09-28v0h0l5.06-29.19h0l15.72-7.86h0l34.23,11.78v0l18.5,65.06h0ZM568,246.48l43.65,71.64,19.58-59.85-18.49-65L578.6,181.53,563,189.35l-5,29.11C558.23,219.2,568,241.92,568,246.48Z"/><path class="cls-7" d="M849.28,751.23s45.49-19,49.29-12.64,24,27.8,24,27.8,87.19,15.51,84.66,16.6S888.46,995.12,888.46,995.12L843,1009V961l-35.38-46.76,6.32-41.08Z"/><polygon class="cls-7" points="729.23 835.89 683.74 859.9 683.74 886.44 729.23 904.13 763.35 873.16 729.23 835.89"/><polygon class="cls-7" points="714.82 716.89 679.45 707.54 664.1 707.54 652.76 692.2 662.77 680.85 699.47 693.53 723.55 698.87 714.82 716.89"/><polygon class="cls-8" points="719.1 1307.89 672.62 1325.85 665.23 1351.2 712.76 1369.16 747.62 1338.53 719.1 1307.89"/><polygon class="cls-8" points="999.03 1096.59 1025.45 1059.64 1056.09 1089.22 999.03 1119.86 999.03 1096.59"/><polygon class="cls-8" points="892.3 1427.26 862.77 1452.62 899.74 1452.62 927.21 1439.94 903.96 1412.47 892.3 1427.26"/><path class="cls-9" d="M771.45,1921.51s-43.09,2.35-44.65,6.27,4.7,43.87,4.7,43.87l29.77,18,43.87-29.77Z"/><path class="cls-9" d="M791.82,1810.27l-3.13-77.56s41.52-24.28,38.38-22.71-11,32.9-11,32.9l4.71,76Z"/><path class="cls-9" d="M905.41,1619.12c-2.35-3.13-14.1-18-14.1-18s-37.6-43.07-34.47-46.21,28.2-22.72,28.2-22.72l33.69,40-4.36,47Z"/><path class="cls-9" d="M1020.57,1847.87c.78-2.35,29.3-18,29.3-18s20.06-30.95,20.06-28.4,7,53.47,7,53.47l-43.87,9.4Z"/><path class="cls-6" d="M949.37,2244c3.25-8.12,65-146.27,65-146.27l47.13,8.12-56.07,266.55L887.61,2409.8,738.08,2274.9l42.82-64,118.9-25.43,31.69,81.27Z"/><path class="cls-10" d="M1063.17,3047.33l28.91,42.68s-12.39,71.59-14.46,77.1,14.46,99.12,14.46,99.12l-28.91,35.8L948.9,3222.18l56.44-41.31,35.8-89.49Z"/><path class="cls-10" d="M980.56,3209.79l57.83,13.76,23.4,33L1021.18,3457s-171.93,14.64-159.72,0,48.83-120.36,48.83-120.36l-102.54,93.5-109.86-112.3Z"/><path class="cls-11" d="M945,4049.47l79.9-49.6s-10.72-45.5-13.36-47.48S958,3900.84,958,3900.84l-27.76-78.65-39,8.59,20.49,56.84-2,37.67L875.37,3942l-9.92,32.85Z"/><path class="cls-3" d="M931.6,3810.2c-1,2-27.06,41.91-27.06,41.91s1.47,10.74,3,9.26,11-13.77,12.16-12.3S939,3868.75,939,3868.75h13.28l-9.35-38.37s9.84-14.76,9.35-15.26S931.6,3810.2,931.6,3810.2Z"/><path class="cls-2" d="M952.34,3868.82H939l0,0c-.18-.18-18.22-18.23-19.33-19.69a.27.27,0,0,0-.21-.1h0c-1.39,0-6.53,6.13-9.6,9.79-1.06,1.26-1.89,2.26-2.25,2.62a.41.41,0,0,1-.45.13c-1.36-.45-2.55-9.06-2.6-9.43v0c.27-.4,26.09-40,27.06-41.9l0,0h.05c.82.18,20.19,4.43,20.69,4.93.11.1.35.34-4.48,7.89-2.27,3.56-4.63,7.11-4.84,7.42Zm-13.34-.13h13.18l-9.33-38.32v0c3.89-5.83,9.59-14.68,9.36-15.17-.39-.39-15-3.66-20.59-4.9-1.27,2.39-26.35,40.81-27,41.86.42,3.08,1.49,9,2.52,9.31a.31.31,0,0,0,.32-.11c.36-.35,1.19-1.35,2.25-2.6,3.28-3.92,8.24-9.84,9.69-9.84h0a.34.34,0,0,1,.3.15C920.79,3850.47,938.34,3868,939,3868.69Z"/><polygon class="cls-3" points="843.52 3736.89 849.92 3768.88 880.43 3783.14 898.75 3768.38 887.81 3747.23 869.1 3745.75 855.83 3731.48 843.52 3736.89"/><path class="cls-2" d="M880.43,3783.21h0l-30.53-14.28-6.41-32.06,0,0,12.34-5.43,0,0,13.26,14.25,18.71,1.48,0,0,11,21.2,0,0ZM850,3768.83l30.45,14.24,18.26-14.7-10.91-21.09-18.7-1.47v0l-13.25-14.24-12.22,5.38Z"/><path class="cls-3" d="M660.14,384.34c-.42.86-6.77,27-6.77,27l-4.66,17.22L669.45,461l17.36-12.28V396.63Z"/><path class="cls-2" d="M669.44,461.07l0-.05-20.76-32.45v0l4.66-17.22c.26-1.07,6.35-26.15,6.77-27l0-.05,0,0,26.71,12.3v52.15l0,0Zm-20.67-32.52,20.7,32.35,17.28-12.22v-52l-26.58-12.25c-.58,1.56-6.68,26.67-6.75,26.93Z"/><path class="cls-3" d="M618.23,376.19c.88,1.32,39.71,42.8,39.71,42.8l12.79-11.91-15.44-30.89Z"/><path class="cls-2" d="M657.93,419.07l0,0c-1.58-1.69-38.84-41.49-39.71-42.81l-.06-.09h37.21v0l15.47,30.93,0,0Zm-39.58-42.82c2,2.49,38.15,41.11,39.59,42.65l12.72-11.84-15.41-30.81Z"/><polygon class="cls-3" points="703.12 237.76 652.72 237.76 662.97 252.71 707.82 259.97 703.12 237.76"/><path class="cls-2" d="M707.89,260h-.08l-44.88-7.27v0l-10.31-15h50.56v.05ZM663,252.65l44.73,7.24-4.67-22.07H652.83Z"/><polygon class="cls-4" points="620.91 214.96 668.26 231.99 696.36 344.28 696.36 391.56 641.2 397.19 645.7 363.42 626.82 362 639.71 376.01 602.71 411.33 533.75 294.16 561.22 239.77 580.75 252.79 603.94 263.02 615.05 249.86 621.21 241.45 620.91 214.96"/><path class="cls-2" d="M602.69,411.43l0-.06-69-117.21v0l27.51-54.45,19.59,13.06,23.14,10.2L615,249.83l6.15-8.4-.3-26.56,47.46,17.07v0l28.09,112.3v47.35h-.06l-55.23,5.64v-.08l4.49-33.7L627,362.07,639.8,376l0,0ZM533.82,294.15l68.9,117.09L639.63,376l-13-14.09.15,0,18.95,1.43v.06l-4.49,33.7,55-5.62V344.28L668.21,232l-47.24-17,.3,26.42v0l-6.16,8.41L604,263.09l0,0-23.19-10.23-19.49-13Z"/><path class="cls-4" d="M689.5,260.81l25.59,105.45,35.1,14L734,421.55s66.26,8.78,68.46,3.95,44.32-46.51,44.76-48.71,10.91-59.67,10.91-59.67l-33.29-46.95-69.33,8.33-27.21-33.35L702.36,232Z"/><path class="cls-2" d="M793.32,427q-8.82,0-26-1.62c-16.65-1.58-33.24-3.77-33.4-3.79h-.08l0-.07,16.21-41.19-35.08-14v0l-25.6-105.47v0l12.89-28.88.06,0,25.91,13.17,27.18,33.33,69.33-8.34,0,0,33.3,47v0c-.11.57-10.48,57.51-10.92,59.68-.2,1-8.75,9.89-18.64,20.18-11.68,12.14-24.92,25.9-26.12,28.54C802,426.52,799,427,793.32,427ZM734,421.5c2.6.34,66.19,8.63,68.31,4,1.21-2.66,14.45-16.42,26.14-28.57,9.47-9.85,18.42-19.15,18.62-20.13.43-2.15,10.64-58.18,10.9-59.65l-33.25-46.9-69.33,8.34,0,0-27.2-33.34-25.82-13.13-12.83,28.75,25.58,105.4,35.13,14,0,.06Z"/><path class="cls-3" d="M720.94,354.08l-37.78,13.31-2.57,29.18,42.07,18,27-2.14s15.45-30.48,15-33.06S720.94,354.08,720.94,354.08Z"/><path class="cls-2" d="M722.65,414.67h0l-42.11-18.05v0l2.58-29.23h0L720.94,354h0c1.77.93,43.38,22.8,43.81,25.37s-14.4,31.85-15,33.09v0h0Zm-42-18.13,42,18,27-2.14c.57-1.12,15.42-30.49,15-33s-42.51-24.63-43.73-25.27l-37.71,13.29Z"/><path class="cls-7" d="M750.68,762.47c5-2.71,61-26.33,61-26.33l47.62,22.27,2.93,78.29-97.36,68.14L745.63,898l4.8-40.65-38.36-11.21-3-79.56-9.47-50.22,16.79-24.66,36.44,27.72Z"/><path class="cls-8" d="M823.68,1192.75c21.13-20.07,190.15-103.53,190.15-103.53L999,1211.47l-80.28,34.1,26.41,72.89-26.41,108.8s-32.75,9.51-34.86,6.34S837.42,1329,837.42,1329Z"/><path class="cls-8" d="M835.3,1205.42c0,13.74,27.47,96.13,27.47,96.13l-101.41,56-57.05-42.25s-3.17-65.5,0-68.67,10.57-94,10.57-94L747.62,1142l24.3,56-13.73,30.63L800.44,1197Z"/><path class="cls-6" d="M748,2274.87l-89.79,8.89s30.23,64,33.78,62.23,95.12-40.9,95.12-40.9Z"/><path class="cls-9" d="M863.81,1860.06c-2.11-13.17-24.06-155.82-24.06-155.82l64.91-103.15h39.09L976,1824.94l54.72,4.39,19.18,52.67-96,83.4H863.81Z"/><polygon class="cls-9" points="902.4 1890.86 828.6 1855.67 828.6 1801.45 787.4 1801.45 783.88 1857.86 756.36 1914.92 783.88 1976.38 896.79 1980.27 902.4 1890.86"/><path class="cls-12" d="M901.54,2757l-38.83-30.8-33.48,5.35-24.1,32.14s26.78,24.11,34.82,21.43,25.44-10.72,25.44-10.72l12.05,21.43Z"/><path class="cls-12" d="M960.79,2689.28l-5-60.67L919,2611.7l-22.87,34.81,17.9,19.18-2,49.45s-51.72,90.5-56.69,91.5-39.78,27.84-39.78,27.84-63.65-5-63.65,0,17.9,47.74,23.87,47.74,185-23.87,185-23.87Z"/><path class="cls-12" d="M949.85,2686.29v83.55s-36.8,65.64-39.78,66.63S740,2884.21,740,2884.21s132.28,135.26,137.25,131.28,158.13-131.28,158.13-131.28l-8-148.19-18.9-113.38Z"/><path class="cls-12" d="M987.65,2612.7l5,124.32s19.89,9.94,21.88,7,20.88-59.67,20.88-59.67V2612.7l-23.86-25.86Z"/><path class="cls-12" d="M818.18,2930.54l-66.24,35.85s46,44,53.19,34,48.21-31.64,48.21-31.64Z"/><path class="cls-13" d="M866.44,3951.65c-9.65,2.76-195.64,38.58-195.64,38.58L630.85,4190H796.17l81.29-11-38.58-57.87,132.26-50.28v-91.62l-62-37.2Z"/><polygon class="cls-4" points="935.51 3746.19 919.65 3813.6 967.89 3825.5 987.72 3699.93 987.72 3654.33 945.16 3616.52 844.5 3616.52 801 3672.06 794.91 3730.58 845.49 3742.48 861.36 3731.57 891.31 3759.34 935.51 3746.19"/><path class="cls-2" d="M967.94,3825.57h-.06l-48.31-11.91,0-.06,15.84-67.31-44.13,13.13,0,0-29.92-27.74-15.85,10.9h0l-50.64-11.91v-.06l6.09-58.53v0l43.52-55.56H945.2l42.58,37.83v45.63Zm-48.22-12,48.12,11.86,19.82-125.5v-45.57l-42.52-37.77H844.53l-43.48,55.5L795,3730.53l50.51,11.89,15.88-10.93,0,0,29.93,27.75,44.26-13.17,0,.1Z"/><path class="cls-3" d="M917.78,3601.41l-20.9,27.72,10.45,50.69s23.3-1.58,26.46-3.17,23-30.88,23-30.88l3.17-29.25-16.63-19.07Z"/><path class="cls-2" d="M907.28,3679.89v-.06l-10.45-50.71,0,0,20.9-27.74h0l25.55-4,0,0L960,3616.5v0l-3.18,29.27c-.81,1.2-19.84,29.34-23,30.91s-25.53,3.11-26.49,3.17ZM897,3629.15l10.43,50.61c1.24-.09,23.34-1.63,26.39-3.16s22.43-30.12,22.93-30.86l3.17-29.2-16.6-19-25.46,3.95Z"/><path class="cls-14" d="M282.42,300c-.15-.34-.74-.86-.86-.51l.75,1.12Z"/><path class="cls-14" d="M279.11,299.84a4.08,4.08,0,0,0,1.77,2.46c-.67-1.14-.22-.84-1-2.19.13-.35.72-.12,1,.27-.15-.33.57-.16.11-.89-1-.42-1.46,0-1.26,1C279.44,300.35,279.27,300,279.11,299.84Z"/><path class="cls-14" d="M257.93,325.93l.26-.05A.44.44,0,0,0,257.93,325.93Z"/><path class="cls-14" d="M241.69,335.14a.28.28,0,0,0,.17-.29C241.75,334.94,241.66,335,241.69,335.14Z"/><path class="cls-14" d="M239.34,333.5a.4.4,0,0,0,.1.12C239.42,333.49,239.39,333.41,239.34,333.5Z"/><path class="cls-14" d="M257.93,325.93l-.67.13C257.56,326.37,257.68,326.06,257.93,325.93Z"/><path class="cls-14" d="M278.57,305.32a.86.86,0,0,0-.09-.44,1.33,1.33,0,0,1-.06.3Z"/><path class="cls-14" d="M262.38,318.1l.09-.14a4.13,4.13,0,0,0-.37-.41Z"/><path class="cls-14" d="M266,312.09c-.13.11.79.75,1.17,1.07-.34-.32-.46-.54-.46-.71A5.74,5.74,0,0,0,266,312.09Z"/><path class="cls-14" d="M274,303.77v-.25C274,303.59,274,303.69,274,303.77Z"/><path class="cls-14" d="M259.37,322a2.61,2.61,0,0,0-.36-.19A1.26,1.26,0,0,0,259.37,322Z"/><path class="cls-14" d="M224.77,177.28l.18.09C224.86,177.28,224.8,177.24,224.77,177.28Z"/><path class="cls-14" d="M233.26,172.12v.13l.56.29Z"/><path class="cls-14" d="M236.66,330.15v0C236.84,330.18,236.77,330.14,236.66,330.15Z"/><path class="cls-14" d="M215.81,278.23c-.89.81-1.44-.89-2.39.27C213.84,278.34,215.3,279.15,215.81,278.23Z"/><path class="cls-14" d="M278.35,305.37a.87.87,0,0,1-.16.23C278.3,305.52,278.35,305.45,278.35,305.37Z"/><path class="cls-14" d="M213.42,278.5h0l-.09.12Z"/><path class="cls-14" d="M228.49,319.37a1.85,1.85,0,0,0-.37.37A1.38,1.38,0,0,0,228.49,319.37Z"/><path class="cls-14" d="M232.86,329.21l0-.3A.45.45,0,0,0,232.86,329.21Z"/><path class="cls-14" d="M224.55,315.12c0-.17.14-.28-.08-.4l-.1.11C224.54,314.83,224.65,314.89,224.55,315.12Z"/><path class="cls-14" d="M222.23,309.73l-.18.18.13.15Z"/><path class="cls-14" d="M217.9,194.64a4.68,4.68,0,0,1,1,.11C218.17,194.54,218.24,193.59,217.9,194.64Z"/><path class="cls-14" d="M278.08,304.93c.2.21.28.33.27.44a1.07,1.07,0,0,0,.07-.19A1,1,0,0,0,278.08,304.93Z"/><path class="cls-14" d="M216.41,318.63l-.27-1A3,3,0,0,0,216.41,318.63Z"/><path class="cls-14" d="M206,237.59l-.1-.25C205.87,237.43,205.89,237.51,206,237.59Z"/><path class="cls-14" d="M214.78,314.94a2.06,2.06,0,0,0,.5-.83,1.7,1.7,0,0,0-.32,0Z"/><path class="cls-14" d="M219,194.75h0Z"/><path class="cls-14" d="M219,187.78c-.39.85,1.16,1,1.87,1.48-.05,1.19-1.21.05-2.05.11.09.79,1.13,1.8.88,2.26-.24-.06-.36,0-.6-.23.8,1.12-.78,2,.28,3.38a1.13,1.13,0,0,1-.38,0,9.08,9.08,0,0,1,1.93.64c-.13.39.58,1.06-.37.85.12-.23-.24-.39-.47-.62l.23.56c-1.44-.15-.23-.73-1.19-1.11.11,1,.82,2.3.21,2.76-1.31-.37.14-1.58-1.31-1.22l.86-.74c-2.28-.08.36-.52-2-.71-.86,1.1.1,1.65-.76,2.74.59.55,1.07.31,1.67.86.58,2.24-3.75.16-2.53,2.12.72.66,2.29,1.38,1.1,2L215,202c-.58,1.17,1.82,1.45.39,2.37-.48-.43-.13-1.13-.37-1-1.44.42.61.88.38,1.52l-1.33-.33c-.28,1.37.14,3.12-.08,4.65-.36-.2-.68-.59-1.18-.38.06,2.06-1.46,3.86-2.76,5.44l.93,1c0,.15-.59.14-.76-.09-.63.58.71.24,1.05.71,0,.42-.79.34-1.06,0,.61,1.53,1.06,4.08-.49,5.08l-.28-.35c-.71.92,2.06,1.75.77,2.43l-.16-.23c-1,2.12-.59,4.78-2.59,6.17,1.6.64-1.16,2.1,1.13,2.67-1.38,1.08-1.74.64-2.84,2.35-.18.48,1.35,1,1.52,1.6l-1.22-.17,1.17,1-1.52.24.24.61a1,1,0,0,1,1-.32c.43.95-1.14,2-1.77,2,.25.75.49,1.49.77,2.23-.5-.1-.63-.47-.9-.78,1.11,1.26-1.32.07-.27,1.23.29-.11.72.15,1,.19a2.25,2.25,0,0,0-.64,2.53l-.84-.24c-.31,1.58.09,3.37.06,5.15.42-.62,1.88-.4,2,.11l-1.31.16c.8.36.51-.52,1.47.2-.16.65-1.49.39-1.9,0l.43.82c-.39,0-.59-.16-1.09-.23.8.36-1.34,1.36,0,1.88l-.39,0a28,28,0,0,0,.45,4c1.13,0,.89.58,1.81,1-.33,1.05-1.19,2.25-1.07,3.52.58.87,1,.22,1.64.6-1,.1-.9,1.37-1.65.74A9.58,9.58,0,0,0,206,266c.4-.24.57-.48.92-.38.2.33-.37.81-.86.8l-.12-.09c.85,1,.19,2.31-.4,3.56s-1,2.44.16,3.18l-.11-.08,1.31,1.64c-.08.83-.82-.4-1.38.28,1.92,1.69.08,3,1.47,4.45-2.8,1.65.88,4.24-.77,6.18l.69-.21c.75.3-.32.57-.43.91.53-.14.56-.56,1-.37,1.46,3.41.38,7.55.68,11.4.16,1.39,3.73-.15,2.55,1.94l-1.41-.13c2.24,2.25,1.49,5.5,3.64,7.68-.34-.06-.72.06-.8-.19-.74.85.64,2,1.39,1.78.06.43-.64.33-.92.71-.34.74,1.64.95.84,1.57-.13.1-.34-.05-.45-.12.56.19.52,1.69,1.42,1-.11,1.15,1.16,1.64.88,2.64,1.35,0,.13,1.86,1.8,1.32-1.7.65-.59,2.24.45,2.47-.59,0-.28.75-1.07.84.33.67.93,1.14,1.71.62-1.32,2.19,2.76,1.67.68,3.62a48.21,48.21,0,0,1,4.87,4.39c-1.59.9-1.27-1.78-2.86-.74,1.59,1.29,3.51,1.34,4.13,3.14.07.53-.81.21-1.15.24,1.69,1.15,1.9,3.11,3.79,3.93a.82.82,0,0,1-.62,0c.26.24.29.81.91.27l-.38-.13c.6-1.15,2.78-.48,3.3-.88-2.18,1.09.68,1.67-2.15,3a1.16,1.16,0,0,0,1.14-.38c.12.36,0,.67-.73.83,1.27.67,1.53-.3,2.41.53-.27.29-.55.24-1,.5,1-.14,1.93-.35,2.58.53-.19.15-.26.48-.52.29a4.68,4.68,0,0,0,2.66.47,3.93,3.93,0,0,1,2.56.6c-1,1.53.53.73.38,2.2a12.79,12.79,0,0,0,1.26-.27c-.13-.25-.26-.51-.38-.77,1,.16,1.85-.92,2.63-.46-.22.22-.45.42-.68.63a15.76,15.76,0,0,0,1.74-.38c-.35-.15-.68-.32-1-.49.84-.83-.21-1.86.91-1.55-.19.18.79-.09,1.39.68h0c.33-.55.59-1.13,1.26-.93.29.41.33,1.63.51,1.9.07-1.3,1.86-1,1.83-2.4a2.55,2.55,0,0,0,.36,1.21c0-.36,0-.71-.07-1.07.46.14.58.26.77.86,1.13-.34-1.09-1.58.46-1.42-.06.12.05.24-.08.47a3.68,3.68,0,0,0,1.74-.95,3.43,3.43,0,0,1,1.59-1c1.12,1.07-.74.91.28,1.76a10.07,10.07,0,0,0,1.85-2.36,5,5,0,0,1,1.83-2.07l-.36.07c-1.18-1.72,1.65-.05,1.62-1.4-.05.25.6,1.05.48.83a3,3,0,0,0,1.23-1.46c.27-.69.49-1.5.83-2.37l.26.52a2.57,2.57,0,0,0,1.11-.71,6.08,6.08,0,0,1,.95-.9c-.29-.52,0-.79-.74-1.08,1.94.09,2.27-1.06,2.48-2.18s.35-2.24,2-2.34c-.13.2.08.74.18.58l.54-1.68c-.85-.4-.59-.13-1.39-.24a1.38,1.38,0,0,1-.2-1.44c.09,1,1.25.82,1.85.82a8.58,8.58,0,0,1-.72-.51c1.85.17-1.48-1.14.09-1.52l.37.31c0-.51-.28-1.2.09-1.52,1,.41.17.66.89,1.16.32-.6-1-2.2.23-2.14.1.4-.12.75,0,1.15,1.41.11,1.19-.12,1.62-.43l-.05,0,1.08-.66-.44.06c-1.9-2.2.48-1.7-.45-3.63.87,1.85.75.69,1.72,1.41.44-.06,1-.22,1.21.07-.54-1,1.12-.33.32-1.72.35.18.34-.45,1.1.18.12-.73-.66-.23-1-.55-.52-1.61,2.69-1.17,2.05-3.4.13-1.48-.82-2.47-.59-3.83.75,0,.93,1.11.93,1.11.86-.17,1.07-.62,1.1-1.39.19.31.49.39.95.51.22-.45-.92-1.16-.05-1.29a8.48,8.48,0,0,1,.91,1.36c.07-.67-.12-1.55,0-2.24.62.32.55.94.76,1.38.19-.69.64-1.69,0-2.57l-.57.07c.12-.22.77.52.8.79.27,1-.81.38-1.13.15l.09-.49c-2-1.14-.88,1.55-1.48,2.14l-1.08-1.33.53,1.58c-.46-.12-1.27-.58-1.2-1.09-1,0,.12.81-.94.69-.15,0-.2-.1-.22-.19l0,.8c-.21-.31-1-.62-.58-.79-1.48.34-.06,2.22-1.33,1.82l0-.13c-.44,1.6.9.83,1.42,2.59L270.58,307l.93.82a.5.5,0,0,1-.75,0c.36,1,.5.21,1,.94-1.35,0-.73,2.05-2.46,1.13.63.74,1-.22,1.1.81-1.89-.94-.21,1-1.4,1.07-.79-.77.05-1-1.14-.95,1.31,1.34-1.08.94-1.1,1.63,1.21.8-.18,1.41-.3,2.51-.38-.31-1.67,1.14-2.61,1.62l-.19-.16c1.13.94.4,1.6.27,2.33-.72-.51-.94-.8-1.07-1.32l-.35.53a1.23,1.23,0,0,1,.32,1.13l-.83-.75c-.42.72.13,2.17-1.11,2.62.79.65,2.85.92,2.71,2.28-.48-.29-1.27-.8-1.28-1.18,0,.12.17.56-.14.58l-.49-.92c-.62.17.48.67.17.94-.63-.47-.63-.09-1.1-.51,0-.12.47-.08.31-.39a1.88,1.88,0,0,1-1.66.22c.39.24.86.64.75,1-.45.72-.93-.33-1.55-.2.31.49-.46.55.46,1.29-.16.19-.62-.12-.93-.25.14.66-1.13,1.66.14,2.09l.13,0s0,.06,0,.09h0c0,.92-.66,1.36-1.34,1.74s-1.42.65-1.76,1.31l-.27-.29c-.29.89-1.13,1.48-1.07,2.47-.2.15-.92-.2-1.13-.63-.3.61-.1,1-1.19,1.05.08-.94-.52-.36.2-.8-.82.24-1.32-.22-1.43,1.12-.32-1-1.18-.76-1.32-.31l.83.33a1.87,1.87,0,0,1-1,.59l-.5-1.26c-1-.3-1.31.52-1.66,1.32s-.78,1.47-1.76.36c-.06,1,1,.34,1,1.47-.78.12-2-1.51-2.18-1.47-.5-.24-.55.27-.65.82s-.22,1.13-.72.95c.17.44.53,1.69-.24,2.23-.81-.11-1-1.93-.61-2.33.14,0,.23.1.24.26a.63.63,0,0,0,.13-.91l0,.48c-.36-.44-1.12-.38-.94-1.17a.62.62,0,0,0,.14,1,1.22,1.22,0,0,0-.91-.37.93.93,0,0,1-.81-.29c0,.28,0,.85-.08.82-.45-.41-.6-.24-.79,0s-.35.69-.79.61c-.14-.85.83-1.49-.11-1.28-.18-.65.52-1.14.81-1.44-.46.29-.65,0-.7-.38s0-.85-.06-1l.47-.13a.45.45,0,0,1-.51-.12l-.44.87c-.06-.26-.19-.37.06-.67-.57.33-.86,1.34-1.79,1.66.08-.56-1.12-.33-.31-1.31.43,1,.83-1,1.54-.55-.21,0-.34-.13-.38-.4a.41.41,0,0,1,.3-.18c.19-1.42-1.31.72-2-.1.63-.36.87-1.05.65-1.08.25.32-.77.93-1.45.95,0-.9-.82-.36-1-.71l.06.51c-.65.31-.81-.05-1.31-.35.42-.36.59.17.68-.13-1.37.26.26-1.85-.89-2.05.18-.59,1.07-.78,1.15-1.24-1.28-.25.24-1.35-.9-1.75-.66.75-.43.67-1.58.59.48.33.94.67,1.43,1-.58,0-1.15-.06-1.72-.1.24.43,1.07.54,1.1.87-.93,0-.71-.07-1.23.57.8-1.34-1.43-.68-1.05-1.87l2-1.25c.27-1.5-2.11-1.1-2.37-2.72l-.11.62c-.91.3-.59-.73-1.16-1,.72-.35.82-.76,1.15-1.17-.5.3-.47-1-1.93-.38l.6-1.08c-.17-1.27-2.63-.23-2.93-1.42.94-.06,1.2-.78,2.1-.35-.16-.35-.19-.73-.69-.5.34-.41-1.43-.53-.9-1.18-.38,0-1.16.29-1.28-.14a.91.91,0,0,1,.35-.16c-.35.16-.77-.42-1.41.29a2,2,0,0,0,.08-2.57c-.4-.74-.86-1.45-.06-2.34a12.5,12.5,0,0,1-1.5-2.32c.24,0,.37-.13.34,0,.33-1.28-2.35.14-2-1.32,1-1,.87.39,1.19-.14,2.4-1-.83-1.29.36-2.57l.2.14c.65-.88-1.43-1.16-1.54-2.22a1,1,0,0,0,.37-.11,4.85,4.85,0,0,1-2.91-2.36c1.07,0,.64.3,1.59-.16-.26-.4-1.57.57-2.08-.23.45-.43.75-1.19,1.79-1.55l.29.8c1.26-.8-.34-1-.22-1.54l.62-.1c-.51-1.2-2-.84-2.27-2.23l-.42.25c-1.7-.39.7-.83-.6-1.31l1.49-.58a11,11,0,0,1-2.36-2.23,9.49,9.49,0,0,1,2.89,1.65c-.1-.48-.49-1.62-1.3-1.71.19.16.62.33.43.57-1.34-.33-2.1-1-2.28-2,3-.42.27-2.72,2.48-3.86-1.41-1.54-.07-3.53-.57-5.51-2.24,1.07-.16-.58-2.56-.1-.23-.46-.22-.64-.07-.71l1.22-1.64c.65-.44.61.37,1.14.25,0-1.05,1-.57,1.53-1.33-.86.25-1.29-.2-1-.83l-1,1c-1.46-1.29,1.9-1.51.45-2.8l.82.37c-.54-.69-.3-2.73-2.34-3.27.26-.16.91-.4,1.12-.09.07-1.8-2.39-3.81-1.3-5.29l.6.09c-.19-.32-1.16-.51-.59-1,.25,0,.61.1.63-.06-.22-.16-1.11-.83-.79-1.29l.7.34c.64-1.77-1.73-2.59-2.19-4.07a2.76,2.76,0,0,0,2.57-2.1l.25,0c.13-2-1.43-3.42-2.09-5.33a3.05,3.05,0,0,0,1.32-2.6,7.1,7.1,0,0,1,.85-3.1c-.34.26-1.36-.15-1.51-.5.39-.41-1.12-1.32.48-1.11l0,.15c1.6-.19,1.25-1.11,1.35-1.81l-2.09-.33c1.61-.76,1.51-2,1.33-3.11s-.4-2.18,1-2.48c-.46-.51-.4-1.06-.83-1.58l1.11.21a6.64,6.64,0,0,0,.77-3.27l.74.45c.23-.82-3-1.67-2.93-2.48l1.7.1c.24-1.5,2.09-2.62.92-4.42.23.08.7.24.71.49.21-.68,1.73-2.37-.58-2.69,1.45.35.52-1.47.12-2.43l1,.41c-1.19-1-1.56-1.16-1.68-2.2.21-.18.92.05.56.26.77-.58-.85-.86,0-1.59l.59.53c.3-.74-.09-.78-.77-1.44-.29-.6.68-1.36,1.69-1.17-.56-.28-1.21-.94-.79-1.3a.91.91,0,0,1,.64.4c1.13-1-.62-2.26.7-2.79a1.24,1.24,0,0,0,.68.06,5.6,5.6,0,0,1-.72,1.67c1,.31,1.41-.43,2.56.63-.54-.86-1.78-2.49-1.07-3.12a1.58,1.58,0,0,1,.37,0l.09.12c.15-.15.11-.34,0-.55a1.3,1.3,0,0,0,.5-.55c.83.18.74-.76.93-1.14-1.07-.34-.71-.8-1.77-.62.1,0,.1.12.05.4a.38.38,0,0,0,0,.21l-.08-.06-.27,1c-.44-.5-.79-1,0-1.23-.61-.44-1.23-.91-1.51-1.15,1.68,0,2.85-.8,3.82-.62-.16-1.42.64-3-1.06-4.49-.13-.45.71-.19,1.07-.2.12.28,0,.5.25.72-.25-.89.6-2.11-.72-2.81,1-.62,1.08,1,1.32-.29l.36.32c3.12-1.44-2-5.22,1.88-6.65a.77.77,0,0,1-.6.1c2.46-2.41,1.39-6.56,4.63-8.58.75-.65-.07-1.12-.51-1.91l1.19.31-.9-1.42c-.39-1.64,3.63-.88,2.58-3.2l-.83-.14c.39-.48.36-1.94,1.17-1.46-.11-.11-.69-.53-.2-.57l.58.25-.36-1.8c.89-.85,2.2,1.21,3-.26,0-.66-.93-2.38-1.41-2.35a1,1,0,0,1-1.21.17l-.06-.66c-1.65-.88-3.19-2.09-5-1.35l.63,1.37-1-.09.3-.77c-1,.07-.41.65-.08,1.17a1.76,1.76,0,0,0-1.08,0l1.22,1.62c-.72-.2-1.14-1-1.77-.58.56.76,1.66.29,1.84,1.2-1,.07-1.53-.34-1.11.46a1,1,0,0,1-.79-.65c.31.69-.33,1.29.47,1.93-1.16,0-.44,1.62-2,.85a3,3,0,0,1,.79,1.8c-1.59-1.62-.8,1.5-2.78.37,1.49,1.34-.13,2.37.4,3.79-.12-.12-.35-.35-.22-.4-.39.5-1,.43-1.47.65,1.4.7,1.34,1.71,2,2.56-1.69.08-1.5-1.15-2.93-1.51,1.18.47.65,1.7,1.72,1.88a3.09,3.09,0,0,1-1.92,0c1.77.86.1.62,1,1.53-1.21.39-1.77-.52-1.58.56C219.28,188.8,219,187.78,219,187.78Zm-4.64,21.58h0l.07-.45Zm-.55,1.74a4.4,4.4,0,0,0,.29-.74c.39.06.74.25.67.42C214.51,210.6,214.17,210.94,213.77,211.1Zm8.56-1.14c.06.31-.17.33-.4.29a3.34,3.34,0,0,0,0-.5l-.12-.08A3,3,0,0,1,222.33,210Z"/><path class="cls-14" d="M221.11,209a.5.5,0,0,1,0-.13,1.77,1.77,0,0,0-.29.07l.3.21Z"/><path class="cls-14" d="M258.24,325.87h-.05a.35.35,0,0,1,.17,0C258.31,325.91,258.28,325.88,258.24,325.87Z"/><polygon class="cls-14" points="205.74 235.45 206.02 235.49 205.79 235.29 205.74 235.45"/><path class="cls-14" d="M267.18,320.12a.65.65,0,0,0,.31.05A.64.64,0,0,0,267.18,320.12Z"/><path class="cls-14" d="M269.73,316.62l.66-.3A2.31,2.31,0,0,0,269.73,316.62Z"/><path class="cls-14" d="M272,314.14a2.88,2.88,0,0,0-.37-.31h0Z"/><path class="cls-14" d="M227,333.94a.57.57,0,0,0-.13-.08C226.51,333.73,226.71,333.86,227,333.94Z"/><path class="cls-14" d="M244.05,339.13a2.7,2.7,0,0,1-.46.62C243.92,339.78,244.17,339.75,244.05,339.13Z"/><path class="cls-14" d="M216.44,318.74h0l-.05-.11Z"/><path class="cls-14" d="M242.76,339.85a.68.68,0,0,0,.83-.1A1,1,0,0,0,242.76,339.85Z"/><path class="cls-14" d="M280.43,303.28l.13-.08a.79.79,0,0,1-.13-.14Z"/><path class="cls-14" d="M280.43,303.06v-.21A.14.14,0,0,0,280.43,303.06Z"/><path class="cls-14" d="M280.46,302.39l0,.46C280.52,302.76,280.65,302.67,280.46,302.39Z"/><path class="cls-14" d="M277.42,306.15l.3.28A2.19,2.19,0,0,0,277.42,306.15Z"/><path class="cls-14" d="M276.74,307.22c.26-.18,1.16-.08,1.21-.56l-.23-.23C278.08,307,276.37,306.59,276.74,307.22Z"/><path class="cls-14" d="M269.49,308.89l.89-.75c-.47-.08-1.1-.19-.9-.67C267.61,307.94,270.45,307.76,269.49,308.89Z"/><path class="cls-14" d="M267.07,311.47c.15-.61-.54-.33-.73-.49C266.47,311.52,266.51,311.65,267.07,311.47Z"/><path class="cls-14" d="M252.36,330.35l-.59-.84C251.54,329.88,252,329.83,252.36,330.35Z"/><path class="cls-14" d="M251.34,337.42l.74.3-.27-.94C251.65,337,251.5,337.22,251.34,337.42Z"/><path class="cls-14" d="M245.71,332.06l.09-.21c-.14.21-.29.42-.43.6Z"/><path class="cls-14" d="M223.53,310.32l-1.11.6C222.74,311.12,224.08,310.63,223.53,310.32Z"/><path class="cls-14" d="M217,294c.56-.34.84-.91.18-1.07C217.18,293.37,216.8,293.87,217,294Z"/><polygon class="cls-14" points="215.13 241.49 215.5 241.88 215.24 241.19 215.13 241.49"/><path class="cls-14" d="M658.86,214.3c-.35,0-1.12.12-.93.33l1.33,0Z"/><path class="cls-14" d="M656.65,216.19a5.78,5.78,0,0,0,3,0c-1.3-.09-.78-.23-2.33-.3-.18-.21.37-.46.86-.49-.35,0,.23-.4-.61-.4-1,.44-1,.82-.06,1.1A2.5,2.5,0,0,1,656.65,216.19Z"/><path class="cls-14" d="M657.81,238.91l.14-.17A.31.31,0,0,0,657.81,238.91Z"/><path class="cls-14" d="M659.08,252.91a.29.29,0,0,0-.3-.12C658.88,252.88,659,253,659.08,252.91Z"/><path class="cls-14" d="M658,255.49a.71.71,0,0,0,.07-.16C657.93,255.4,657.87,255.47,658,255.49Z"/><path class="cls-14" d="M657.81,238.91l-.36.43C657.88,239.3,657.74,239.1,657.81,238.91Z"/><path class="cls-14" d="M660.26,218.83a.79.79,0,0,0-.38-.15.91.91,0,0,1,.17.17Z"/><path class="cls-14" d="M655.88,232.93l0-.11-.55,0Z"/><path class="cls-14" d="M655,228.26a6.19,6.19,0,0,0,1.58,0,1.39,1.39,0,0,1-.8-.12A7.77,7.77,0,0,0,655,228.26Z"/><path class="cls-14" d="M655.9,220.53l-.18-.11C655.78,220.44,655.83,220.5,655.9,220.53Z"/><path class="cls-14" d="M656.12,236.33l-.4.1A1.8,1.8,0,0,0,656.12,236.33Z"/><path class="cls-14" d="M666.06,368.61l-.2,0C666,368.62,666,368.65,666.06,368.61Z"/><path class="cls-14" d="M659.48,372.87l0-.09-.61-.14Z"/><path class="cls-14" d="M657.17,260l0,0C657,259.91,657.07,260,657.17,260Z"/><path class="cls-14" d="M663.11,299.54c1-.52,1.35.63,2.41-.13C665.08,299.51,663.72,298.94,663.11,299.54Z"/><path class="cls-14" d="M660.13,219a.65.65,0,0,1,0,.19C660.19,219.07,660.18,219,660.13,219Z"/><path class="cls-14" d="M665.52,299.41h0l.1-.08Z"/><path class="cls-14" d="M659.26,269.94a2.92,2.92,0,0,0,.48-.17A1.74,1.74,0,0,0,659.26,269.94Z"/><path class="cls-14" d="M659.78,262.26l-.12.21C659.75,262.38,659.78,262.32,659.78,262.26Z"/><path class="cls-14" d="M661.39,273.59c-.07.11-.22.17,0,.28l.13-.06C661.31,273.78,661.23,273.73,661.39,273.59Z"/><path class="cls-14" d="M662,277.61l.21-.1-.08-.12Z"/><path class="cls-14" d="M668,356.3a7.08,7.08,0,0,1-1,0C667.74,356.39,667.9,357,668,356.3Z"/><path class="cls-14" d="M659.63,218.92a.87.87,0,0,1,.5.05.83.83,0,0,0-.08-.12A1.4,1.4,0,0,0,659.63,218.92Z"/><path class="cls-14" d="M670.19,272.5l-.07.66A1.21,1.21,0,0,0,670.19,272.5Z"/><path class="cls-14" d="M672.11,327l.12.16C672.26,327.06,672.23,327,672.11,327Z"/><path class="cls-14" d="M670.56,275a2,2,0,0,0-.72.47,2,2,0,0,0,.3,0Z"/><path class="cls-14" d="M666.93,356.3h0Z"/><path class="cls-14" d="M668.73,361c.15-.6-1.36-.56-2.17-.86-.27-.8,1.13-.12,1.92-.22-.29-.53-1.55-1.14-1.43-1.47a1.26,1.26,0,0,1,.63.11c-1.06-.7.22-1.44-1.13-2.28h.38a13.28,13.28,0,0,1-2-.3c0-.27-.82-.67.15-.6-.06.16.32.25.6.39l-.36-.37c1.41,0,.4.48,1.41.67-.34-.64-1.35-1.5-.88-1.85,1.35.16.26,1.08,1.56.73l-.64.57c2.2-.11-.22.37,2.12.33.55-.8-.5-1.1.06-1.9-.71-.33-1.11-.14-1.82-.47-1.11-1.48,3.54-.36,1.92-1.6-.84-.4-2.52-.79-1.51-1.28l1.47.49c.31-.82-2.08-.87-.9-1.58.56.27.38.76.58.66,1.3-.36-.78-.56-.71-1l1.36.14c-.06-.94-.86-2.1-.93-3.14.39.12.78.36,1.23.19-.45-1.37.59-2.68,1.59-3.78l-1.09-.65c0-.11.56-.12.76,0,.52-.41-.73-.14-1.15-.44,0-.28.72-.25,1,0-.86-1-1.78-2.71-.4-3.43l.32.22c.57-.63-2.27-1.1-1.1-1.6l.19.15c.69-1.44-.16-3.23,1.73-4.18-1.66-.41.91-1.42-1.42-1.78,1.25-.73,1.64-.44,2.56-1.59.14-.32-1.42-.63-1.63-1.06l1.23.11-1.24-.67,1.49-.16-.28-.41c-.08.15-.58.27-.93.22-.5-.64,1-1.37,1.61-1.33l-.92-1.49a1.87,1.87,0,0,1,1,.53c-1.2-.85,1.3,0,.2-.82a2.91,2.91,0,0,1-1-.14,1.15,1.15,0,0,0,.55-1.67l.84.16c.29-1-.25-2.24-.2-3.42-.41.41-1.88.24-2-.11l1.3-.08c-.79-.26-.5.34-1.47-.16.17-.43,1.49-.23,1.91,0l-.43-.56a7.56,7.56,0,0,1,1.08.18c-.8-.25,1.35-.88,0-1.25l.39,0c.06-1.19-.4-1.74-.44-2.71-1.13,0-.87-.41-1.77-.71.36-.69,1.28-1.47,1.17-2.33-.57-.59-1-.17-1.63-.43,1-.05.92-.9,1.66-.47A5,5,0,0,0,672,308c-.42.15-.6.31-.95.24-.17-.23.42-.54.91-.52l.11.06c-1.57-1.38,2.87-3.46.67-4.53l.11.06-1.18-1.13c.15-.55.79.29,1.4-.16-1.79-1.18.11-2.05-1.1-3,3-1.07-.45-2.88,1.36-4.15l-.7.13c-.72-.22.37-.38.51-.61-.55.08-.6.37-1,.23-1.08-2.31.52-5.05.85-7.59.08-.92-3.72-.05-2.17-1.38l1.35.15c-1.8-1.6-.43-3.68-2-5.25.32.06.71,0,.73.18.9-.5-.15-1.37-.92-1.26,0-.29.69-.17,1.06-.39.51-.45-1.34-.76-.42-1.09.15-.05.32.07.4.12-.49-.17,0-1.13-1.1-.75.43-.73-.67-1.18-.09-1.79-1.28-.17.43-1.2-1.32-1.06,1.8-.21,1.28-1.35.38-1.64.56.06.51-.44,1.28-.38-.09-.47-.48-.85-1.39-.64,2-1.17-2-1.49.7-2.37a16.12,16.12,0,0,1-2.6-3.65c1.8-.21.38,1.36,2.25,1-.91-1.09-2.54-1.56-2.28-2.8.2-.34.8.06,1.12.12-.9-1.08-.16-2.32-1.29-3.24a.91.91,0,0,1,.52.16c-.09-.2.19-.52-.62-.39l.25.18c-1.13.5-2.58-.48-3.2-.43,2.37,0,.43-1.13,3.45-1a1.61,1.61,0,0,0-1.12-.12c.13-.23.44-.34,1.09-.22-.55-.68-1.38-.29-1.46-1a6.47,6.47,0,0,1,1,.06c-.81-.23-1.63-.46-1.38-1.08.24,0,.54-.11.56.06-.26-1-2.28-1.39-1.69-2.57,1.75.08.51-.45,2-.71l-.53-.52-.68.33c0-.51-1.19-.8-.77-1.31l.66.29-.41-.91-.49.62c-.83-.4-1.86.32-1.54-.41.17.11-.06-.51.78-.9h0c-.51-.18-1-.37-.73-.8.46-.16,1.65-.15,2-.26-1.28-.07-.52-1.14-1.88-1.27a4,4,0,0,0,1.26-.1l-1-.07c.29-.28.44-.33,1.06-.38.09-.74-1.84.49-1.15-.47.09.06.24,0,.41.12.3-.9-.87-1.54-.49-2.38,1.46-.44.46.62,1.68.18-.43-1.08-2.11-2.06-1.92-3.19l-.13.23c-2.12.15.92-1-.15-1.36a2.26,2.26,0,0,0,1,0c.24-.78-.73-1.44-1.55-2.46l.56.06c.42-.51.11-1.19.29-1.7-.56-.06-.51-.34-1.27-.06,2.87-1.9-2-2.54.33-4.2,0,.16.53.3.51.18l-.65-1c-.9.22-.54.23-1.21.56-.57-.06-1-.31-1.07-.58.68.4,1.47-.22,2-.5-.28.07-.6,0-.88.1,1.55-.81-1.85.17-.87-.77l.49,0c-.29-.26-1-.44-.87-.77,1-.28.54.24,1.41.13-.12-.43-2.13-.59-1.13-1.14.32.15.36.42.68.57,1.18-.62.86-.62,1-1l0,0,.45-.83-.31.24c-2.84-.17-.66-1.06-2.58-1.55,1.82.48,1,0,2.22-.14.3-.24.63-.58,1-.55-1-.21.68-.7-.8-1,.38-.07,0-.38,1-.44-.37-.41-.66.21-1.15.24-1.42-.52,1.37-1.9-.59-2.66-.87-.77-2.2-.75-3-1.47a1.75,1.75,0,0,1,1.44,0c.5-.52.35-.84-.15-1.2a1.92,1.92,0,0,0,1-.28c-.15-.32-1.44,0-.94-.55a10.87,10.87,0,0,1,1.6.12c-.41-.35-1.19-.64-1.59-1,.65-.2,1.05.1,1.51.19a2.23,2.23,0,0,0-1.86-1.1l-.34.35c-.08-.16.9-.22,1.11-.12.9.27-.28.62-.67.7l-.29-.26c-2.22.63.53,1.12.49,1.73h-1.69l1.46.41c-.41.19-1.32.41-1.61.15-.75.54.64.29-.22.78a.36.36,0,0,1-.28,0l.55.34c-.36,0-1.16.23-1-.05-.84.87,1.41,1,.2,1.47l-.11,0c.7.95,1.22-.07,2.75.49l-2.91,1,1.23-.08c0,.12-.09.34-.58.37.88.27.52-.14,1.33,0-1,.67.72,1.33-1.19,1.72.94.06.64-.58,1.35-.13-2,.45.45.58-.44,1.18-1.09,0-.58-.52-1.47.09,1.85,0-.27,1,.13,1.3,1.45-.19.73.77,1.3,1.36-.49,0-.61,1.35-1.05,2h-.24c1.47-.09,1.29.58,1.65,1a2.71,2.71,0,0,1-1.65-.12l.07.43a1.22,1.22,0,0,1,.95.39l-1.1,0c.14.57,1.44,1,.82,1.82,1-.1,2.74-1,3.53-.31a3.79,3.79,0,0,1-1.73.1c.08.06.49.18.27.34l-1-.18c-.36.4.79.07.75.35-.79.11-.53.28-1.16.33-.09-.06.29-.28,0-.34a1.78,1.78,0,0,1-1.08,1c.44-.09,1-.15,1.18.06.14.57-.91.33-1.27.73.57.06.06.5,1.23.35,0,.17-.52.28-.83.39.56.22.34,1.37,1.54.85l.07-.09.06,0h0c1.3.81-.37,2.12.26,3l-.39.05c.53.51.45,1.25,1.35,1.54,0,.17-.66.51-1.13.5.36.4.8.39.25,1.12-.75-.35-.58.24-.57-.39-.25.63-.86.85.3,1.31-1-.07-1.2.61-.86.84l.66-.5a1.1,1.1,0,0,1,.09.85l-1.34,0c-1.44,1.4,3,1.73.47,3,1,.18.56-.73,1.68-.61-.1.57-1.91,1.4-1.89,1.57-.63.84,2,.42,1.63,1.26.46-.16,1.7-.44,2.23.08-.1.56-1.88.95-2.31.66,0-.13.09-.21.25-.23a.67.67,0,0,0-.91-.06h.48c-.44.34-.29,1.08-1.08,1,.5.35.79.07,1-.27-.58.79.14,1.08-.22,1.86.24-.15.78-.33.79-.22-.43,1.13,1,.34,1.27,1-.66.5-1.73.1-1,.73-.42.5-1.23.27-1.64.15,1,.52-.42,1.3-.54,1.69l-.43-.28a.59.59,0,0,1,.3.51l.91-.33c-.14.22-.11.4-.51.45.65.12,1.54-.38,2.45-.09-.44.33.62.74-.61,1,.3-.9-1.24.27-1.54-.41.17.11.18.28,0,.51a.38.38,0,0,1-.34,0c-1,1,1.46.17,1.55,1-.72,0-1.3.39-1.13.5,0-.34,1.14-.33,1.73-.09-.47.61.49.52.46.81l.22-.36c.71,0,.66.29.93.64-.54.11-.42-.29-.64-.12,1.29.24-1.15,1.12-.23,1.58-.44.34-1.32.22-1.61.5,1,.52-.86.84,0,1.41.92-.33.68-.33,1.67,0l-.83-1,1.48.53c0-.35-.7-.63-.56-.86.82.23.58.23,1.34,0-1.35.66,1,.8.07,1.47l-2.34.32c-.92.95,1.41,1.26,1,2.39l.36-.4c.95,0,.22.63.64.91a3.66,3.66,0,0,0-1.5.55c.58-.1,0,.77,1.63.64l-1,.62c-.31.9,2.36.64,2.21,1.49-.88-.12-1.39.33-2.07-.13,0,.27-.08.54.46.46-.46.23,1.16.61.46,1,.36.07,1.18,0,1.16.3a1.17,1.17,0,0,1-.39.05c.39-.05.6.4,1.42,0-2.32,1.19.51,2.31-1.48,3.34a6.6,6.6,0,0,1,.83,1.75c-.24,0-.39.06-.32-.06-.62.84,2.31.14,1.61,1.1-1.2.6-.74-.35-1.18,0-2.56.48.49,1-.94,1.74l-.17-.12c-.81.55,1.12.92,1,1.65a1.59,1.59,0,0,0-.39.05,3.72,3.72,0,0,1,2.39,1.8c-1-.08-.57-.24-1.58,0,.19.29,1.64-.3,2,.27a5.52,5.52,0,0,1-2,1l-.13-.57c-1.38.48.14.73-.06,1.07l-.63,0c.31.85,1.87.66,1.88,1.62l.45-.15c1.61.33-.81.53.4.91l-1.55.34a9.09,9.09,0,0,1,2,1.6,8.66,8.66,0,0,1-2.62-1.22,1.25,1.25,0,0,0,1,1.21c-.17-.12-.57-.24-.35-.4,1.29.27,2,.75,2,1.42-3.06.21-.58,1.84-2.9,2.56,1.24,1.07-.26,2.38,0,3.73,2.33-.68.1.39,2.53.11.18.31.15.44,0,.48l-1.39,1.08c-.69.28-.56-.26-1.1-.19-.14.71-1,.36-1.63.87.86-.16,1.26.15,1,.57l1.09-.63c1.36.89-2,1-.65,1.86l-.79-.26c.49.47.09,1.84,2.07,2.24-.28.1-.94.25-1.12,0-.24,1.2,2.19,2.6,1,3.57l-.59-.08c.17.22,1.12.37.52.66-.24,0-.59-.08-.63,0,.21.11,1,.58.71.88l-.68-.25c-.77,1.17,1.67,1.78,2.07,2.79a2.72,2.72,0,0,0-2.64,1.35l-.25,0c-.24,1.34,1.42,2.33,2,3.64-1.95.71-.9,2.63-2.07,3.83a1.92,1.92,0,0,1,1.53.35c-.38.27,1.16.9-.44.75l0-.11c-1.59.12-1.21.75-1.29,1.22l2.11.24c-3.16,1,.84,3.38-2,3.81.5.35.45.72,1,1.07l-1.13-.13a3.14,3.14,0,0,0-.4,2.26l-.78-.3c-.14.56,3.16,1.09,3.17,1.64l-1.7,0c-.1,1-1.7,1.85-.31,3.05-.24-.05-.72-.15-.77-.32-.09.47-1.37,1.69.95,1.83-1.5-.2-.3,1,.29,1.67l-1.1-.25c1.35.67,1.73.74,2,1.44-.17.14-.9,0-.59-.15-.65.42,1,.55.31,1.08l-.67-.33c-.17.51.22.52,1,.94.39.4-.43,1-1.44.88.6.17,1.36.58,1,.85a1.31,1.31,0,0,1-.71-.24c-.89.75,1.08,1.51-.1,1.94a1.6,1.6,0,0,0-.68,0c.15-.7.29-1.25.37-1.18-1-.17-1.29.36-2.62-.31.7.57,2.23,1.62,1.66,2.09a2,2,0,0,1-.36,0l-.11-.07c-.12.11,0,.24.11.37-.2.15-.34.24-.38.4-.85-.07-.56.57-.65.84,1.11.17.87.51,1.84.32-.08,0-.12-.08-.13-.27s0-.1-.1-.14l.1,0a6.89,6.89,0,0,1,0-.72c.53.32,1,.64.29.84.69.27,1.4.55,1.72.7-1.61.12-2.57.72-3.54.65.47,1,0,2.09,2,3,.22.29-.65.17-1,.2-.18-.18-.12-.34-.41-.47.45.59,0,1.48,1.38,1.87-.77.49-1.27-.59-1.2.3l-.42-.2c-2.63,1.22,3.2,3.41-.14,4.68a.92.92,0,0,1,.55-.12c-1.72,1.85.37,4.59-2.13,6.24-.54.5.37.76,1,1.26l-1.21-.11,1.24.89c.82,1.08-3.22.92-1.55,2.41l.82,0c-.23.37.21,1.36-.69,1.1.13.07.8.3.35.37l-.62-.11.86,1.19c-.61.67-2.43-.63-2.78.45.15.46,1.55,1.55,2,1.48.06-.16.47-.34,1.1-.23l.24.44c1.81.45,3.61,1.13,5.08.48l-1-.88.93,0-.06.55c.9-.13.2-.48-.26-.8a2.33,2.33,0,0,0,1-.07l-1.61-1c.73.07,1.36.57,1.84.23-.75-.46-1.66,0-2.09-.65.89-.13,1.55.1.92-.41a1.48,1.48,0,0,1,.94.37c-.5-.44-.06-.9-1-1.27,1.09-.11,0-1.14,1.68-.75-.39-.19-1.24-.85-1.25-1.16,2,1,.35-1.08,2.54-.48-1.78-.78-.53-1.62-1.42-2.54.14.07.43.21.32.25.23-.36.82-.37,1.22-.55-1.52-.37-1.75-1.06-2.63-1.59,1.58-.19,1.74.67,3.2.8-1.25-.23-1.07-1.1-2.14-1.14a3.84,3.84,0,0,1,1.82-.18c-1.91-.45-.26-.41-1.37-1,1.05-.35,1.82.22,1.36-.49C668.15,360.36,668.73,361,668.73,361Zm-.7-14.9h0v.3Zm.18-1.2a1.81,1.81,0,0,0-.13.51c-.39,0-.78-.13-.74-.25C667.59,345.29,667.86,345.05,668.21,344.92Zm-8.11,1.24c-.13-.22.1-.24.33-.23a1.65,1.65,0,0,0,.08.35l.13,0A3.57,3.57,0,0,1,660.1,346.16Z"/><path class="cls-14" d="M661.5,346.74s.06.05.06.09a1.31,1.31,0,0,0,.27-.07l-.33-.12Z"/><path class="cls-14" d="M658,238.71l0,0a.42.42,0,0,1,.15-.07Z"/><polygon class="cls-14" points="672.54 328.37 672.26 328.35 672.5 328.48 672.54 328.37"/><path class="cls-14" d="M660.85,231.58a1,1,0,0,0,.27-.13A.72.72,0,0,0,660.85,231.58Z"/><path class="cls-14" d="M660.69,228.69l.34-.46A1.71,1.71,0,0,0,660.69,228.69Z"/><path class="cls-14" d="M660.93,226.42c-.2,0-.35,0-.48,0h0Z"/><path class="cls-14" d="M667.21,261.05a.13.13,0,0,0,.06.07C667.52,261.29,667.41,261.17,667.21,261.05Z"/><path class="cls-14" d="M663.13,251.06a2.54,2.54,0,0,1,.57.26C663.76,251.12,663.76,251,663.13,251.06Z"/><path class="cls-14" d="M670.2,272.42h0a.15.15,0,0,1,0,.07Z"/><path class="cls-14" d="M663.75,251.8c.2-.21.13-.36,0-.48C663.65,251.48,663.56,251.67,663.75,251.8Z"/><path class="cls-14" d="M660.08,216.86l0-.11h-.18Z"/><path class="cls-14" d="M659.93,216.76l-.15-.1C659.79,216.72,659.81,216.76,659.93,216.76Z"/><path class="cls-14" d="M659.47,216.46l.31.2C659.77,216.58,659.79,216.47,659.47,216.46Z"/><path class="cls-14" d="M660,219.83l.41,0A2.17,2.17,0,0,0,660,219.83Z"/><path class="cls-14" d="M660.22,220.7c.06-.22.79-.65.49-.91l-.32,0C661,219.86,659.51,220.6,660.22,220.7Z"/><path class="cls-14" d="M655.76,225.09l.22-.79c-.42.19-1,.45-1.12.12C653.71,225.54,655.79,224.1,655.76,225.09Z"/><path class="cls-14" d="M655.46,227.46c-.26-.36-.62.1-.87.11C655,227.77,655.13,227.81,655.46,227.46Z"/><path class="cls-14" d="M657.82,244l-1,.11C657,244.39,657.19,244.05,657.82,244Z"/><polygon class="cls-14" points="663.51 246.42 664.09 246.03 663.14 246.02 663.51 246.42"/><polygon class="cls-14" points="656.56 249.31 656.39 249.2 656.83 249.66 656.56 249.31"/><path class="cls-14" d="M660.88,277l1.24-.27C661.86,276.59,660.46,276.75,660.88,277Z"/><path class="cls-14" d="M663.76,288.8c-.61.21-1,.59-.33.72C663.48,289.24,663.94,288.92,663.76,288.8Z"/><polygon class="cls-14" points="662.75 324.3 662.36 324.03 662.67 324.5 662.75 324.3"/><path class="cls-14" d="M677,357.84c-.11-.13-.43-.37-.41-.26l.48.46Z"/><path class="cls-14" d="M675.75,357.49a4.05,4.05,0,0,0,1.09,1c-.45-.46-.23-.32-.76-.87,0-.11.25,0,.43.19-.11-.13.19,0-.11-.3-.46-.24-.56-.14-.31.22A1.56,1.56,0,0,1,675.75,357.49Z"/><path class="cls-14" d="M670.3,363.16h.09A.1.1,0,0,0,670.3,363.16Z"/><path class="cls-14" d="M667.15,366.81s0-.09-.08-.13S667.1,366.78,667.15,366.81Z"/><path class="cls-14" d="M666.08,367h.06S666.05,367,666.08,367Z"/><path class="cls-14" d="M670.3,363.16l-.25,0C670.22,363.28,670.22,363.18,670.3,363.16Z"/><path class="cls-14" d="M676.36,359.3a.54.54,0,0,0-.09-.16.38.38,0,0,1,0,.1Z"/><path class="cls-14" d="M671.11,361.12l0,0-.2-.19Z"/><path class="cls-14" d="M672,359.73a3.9,3.9,0,0,0,.6.51c-.18-.15-.25-.24-.26-.29Z"/><path class="cls-14" d="M674.33,358.22l0-.09Z"/><path class="cls-14" d="M670.32,362l-.17-.11Z"/><path class="cls-14" d="M646.06,351.62l.09,0Z"/><polygon class="cls-14" points="648.14 348.96 648.18 348.98 648.48 348.89 648.14 348.96"/><path class="cls-14" d="M664.61,367.72h0C664.59,367.65,664.59,367.68,664.61,367.72Z"/><path class="cls-14" d="M658.79,372.37c-.46.24-.65.09-1.14.39A6.17,6.17,0,0,0,658.79,372.37Z"/><path class="cls-14" d="M676.28,359.29l0,.06S676.29,359.32,676.28,359.29Z"/><path class="cls-14" d="M657.65,372.76h0l0,0Z"/><path class="cls-14" d="M662.72,370.45l.21.14A1.24,1.24,0,0,0,662.72,370.45Z"/><path class="cls-14" d="M665,369.11h0Z"/><path class="cls-14" d="M662.43,371.9s-.12-.06-.1,0l.06,0C662.35,371.9,662.34,371.86,662.43,371.9Z"/><path class="cls-14" d="M661.5,372.75l.09.07v-.05Z"/><path class="cls-14" d="M647.73,355.64a5,5,0,0,1,.46-.24C647.82,355.56,647.61,355.41,647.73,355.64Z"/><path class="cls-14" d="M676.11,359.11a.58.58,0,0,1,.17.18v-.05A.59.59,0,0,0,676.11,359.11Z"/><path class="cls-14" d="M665.48,375.12l-.24.11A.38.38,0,0,0,665.48,375.12Z"/><path class="cls-14" d="M651.36,365l-.08,0S651.29,365.05,651.36,365Z"/><path class="cls-14" d="M664.72,375.81a1,1,0,0,0-.36-.19l.07.13Z"/><path class="cls-14" d="M648.19,355.4Z"/><path class="cls-14" d="M646.43,354.45c.06.21.72-.15,1.14-.24.28.17-.48.29-.8.5.23.08.91,0,.93.09a1,1,0,0,1-.3.12c.61,0,.2.46,1,.4l-.17.08a9.53,9.53,0,0,1,.95-.37c0,.08.49,0,.05.2,0-.06-.19,0-.34,0l.23,0c-.62.33-.27,0-.75.13.28.11.89.13.76.33-.63.27-.33-.25-.83.15l.16-.31c-.94.53,0-.16-1,.39-.08.35.45.2.36.56.38-.07.52-.22.9-.28.78.17-1.49.91-.53.9.46-.08,1.27-.35.93,0l-.75.19c0,.3,1.09-.23.72.24-.31.06-.32-.12-.39-.05-.5.4.45,0,.51.12l-.63.27c.21.26.79.41,1,.69a1.42,1.42,0,0,0-.58.22c.47.29.25.91,0,1.45l.6-.06s-.22.16-.34.16c-.15.23.35-.12.59-.13.07.07-.27.23-.46.24.57.1,1.3.39.82.9h-.18c-.14.3,1.22-.18.78.22h-.11c-.05.57.65.91,0,1.59.82-.23-.17.61.94.22-.44.49-.66.48-.89,1,0,.12.75-.11.91,0l-.57.23.67-.06-.66.35.2.07c0-.06.22-.2.39-.26.33.09-.24.61-.53.72l.65.26a1.14,1.14,0,0,1-.51,0c.68,0-.59.27,0,.29a2.18,2.18,0,0,1,.47-.16c-.31.24-.22.49,0,.61l-.41.12c0,.36.44.61.57,1a1.32,1.32,0,0,1,1-.33l-.6.26c.41-.07.19-.2.71-.22,0,.16-.67.34-.89.34l.27.09c-.18.07-.29.07-.53.15.41-.07-.5.51.19.36l-.18.08c.13.37.4.46.53.74.54-.18.46,0,.92-.08-.09.28-.42.67-.29.91.33.1.47-.1.82-.12-.48.18-.35.43-.74.41a1.43,1.43,0,0,0,.77.64,1.1,1.1,0,0,1,.43-.22c.1.05-.15.24-.39.3h-.06c.88.21-1.07,1.5.06,1.53h-.06l.65.2c0,.2-.4,0-.66.24.47.07.49.24.47.41a.53.53,0,0,0,0,.25c0,.06.09.13.27.25a.82.82,0,0,0-.2,1.31c.28.39.62.67.45,1.26l.25-.27c.36-.1,0,.3,0,.47.18-.21.12-.37.32-.43a12,12,0,0,1,1.51,1.45,4.47,4.47,0,0,0,2,1.21c.59.1.41-1.84,1-1.06,0,.23-.11.46-.17.69a4.19,4.19,0,0,1,1.57-.78,3.22,3.22,0,0,0,.76-.34,1.11,1.11,0,0,0,.51-.59c0,.15.14.32.07.36.4.33.54-.31.32-.63.12,0,.22.28.39.4s0-.73.33-.4a.26.26,0,0,1,.05.2c-.05-.25.43-.25,0-.63.39,0,.26-.52.62-.4-.31-.56.53-.08,0-.76.58.69.84.23.65-.19.15.24.29.11.51.43.12-.14.12-.38-.23-.69,1,.53-.16-1.07,1-.24a6.27,6.27,0,0,1,.22-1.77c.67.61-.27.44.45,1.05,0-.58-.41-1.27,0-1.45.17,0,.26.3.35.43,0-.57.61-.59.47-1.19a.6.6,0,0,1,.14.21c0-.07.21-.05-.11-.3l0,.13c-.54-.29-.78-1-1-1.23.84.84.47-.1,1.49,1a.92.92,0,0,0-.36-.42c.11,0,.25.08.45.33,0-.35-.41-.55-.25-.73.15.13.18.21.35.38-.23-.34-.46-.68-.2-.73.09.08.22.16.18.21.17-.32-.44-1.1.09-1.17.61.61.3.07.9.51l-.05-.3-.34-.16c.12-.13-.21-.59.07-.56l.17.29.09-.35-.34,0c-.2-.38-.77-.56-.46-.62,0,.08.12-.14.52.06h0c-.14-.22-.29-.44-.06-.43s.64.52.78.59c-.44-.44.12-.43-.35-.92a2.7,2.7,0,0,0,.49.4l-.37-.36a.84.84,0,0,1,.49.26c.23-.14-.8-.5-.3-.49,0,0,.09.08.12.16.35-.11.08-.65.44-.72.66.38,0,.3.58.6.12-.39-.25-1.18.11-1.38h-.11c-.82-.67.59.08.3-.37a3,3,0,0,0,.35.32c.29-.11.1-.59.06-1.1l.19.2c.29,0,.35-.24.55-.3-.19-.2-.1-.25-.46-.44,1.56.5-.11-1.27,1.2-.87,0,0,.12.24.15.2l0-.45a2.15,2.15,0,0,0-.6-.27c-.19-.2-.3-.41-.25-.49.15.32.61.44.86.53-.12-.08-.23-.19-.35-.27.78.32-.74-.57-.13-.47l.19.16c0-.16-.25-.42-.13-.47.46.28.14.23.49.5.07-.15-.64-.84-.13-.64.09.14,0,.21.11.35.6.25.48.14.63.11h0l.39,0-.18,0c-1-1,0-.47-.56-1.21.55.71.38.32.85.7a1,1,0,0,1,.51.19c-.32-.38.43.07,0-.49.16.1.09-.1.47.21,0-.22-.3-.17-.49-.32-.39-.6,1,0,.47-.81-.13-.47-.62-.91-.71-1.33a1.19,1.19,0,0,1,.52.49c.32.05.35-.07.26-.32a1.39,1.39,0,0,0,.45.28c0-.12-.52-.49-.2-.44.16.16.42.4.56.57-.07-.21-.27-.54-.33-.76a2,2,0,0,1,.51.55,1.13,1.13,0,0,0-.39-.87l-.22,0c0-.06.38.26.44.35.25.37-.27,0-.43-.07l0-.16c-1-.62-.1.44-.27.56l-.61-.58.42.59c-.2-.1-.59-.35-.63-.51-.41-.13.16.28-.28.11a.21.21,0,0,1-.11-.09l.11.26c-.13-.13-.49-.33-.34-.33-.54-.08.25.71-.31.41l0-.05c0,.45.47.39.89,1l-1.32-.75.47.39s-.12.05-.31-.1c.26.35.23.13.5.43-.55-.18-.08.55-.89,0,.34.32.39.07.54.42-.88-.58,0,.28-.47.13-.4-.36-.08-.32-.57-.47.68.62-.35.14-.28.35.58.43.06.42.13.75-.19-.16-.58.11-.92.13l-.09-.07c.57.46.33.56.36.78a2,2,0,0,1-.59-.58l-.08.13a.65.65,0,0,1,.25.4l-.42-.35c-.09.18.29.71-.16.7.41.31,1.28.67,1.4,1.09a2.43,2.43,0,0,1-.68-.55s.14.2,0,.17l-.32-.36c-.23,0,.28.28.19.33-.32-.23-.26-.11-.51-.3,0,0,.18,0,.07-.09a1,1,0,0,1-.65-.13c.19.12.43.31.43.4s-.42-.22-.66-.24c.2.2-.11.13.37.48,0,.05-.27-.11-.41-.18.15.23-.22.43.35.71h.05a0,0,0,0,1,0,0h0c.28.62-.68.37-.67.79l-.16-.11c.06.29-.16.43.1.8,0,.05-.37-.1-.55-.26,0,.21.2.36-.19.34-.19-.32-.28-.13-.11-.27-.26.06-.54-.09-.23.4-.36-.36-.6-.26-.53-.09l.37.1c0,.13-.09.18-.19.23l-.5-.44c-.89-.16.67,1.41-.6.84.31.37.39,0,.77.43-.18.09-1.06-.32-1.1-.28-.44,0,.64.77.28.83.2.12.73.48.79.77-.19.1-.93-.42-1-.63,0,0,.09,0,.15,0a.42.42,0,0,0-.31-.32l.17.16c-.25-.07-.38.15-.66-.14a.4.4,0,0,0,.44.28c-.42,0-.23.29-.57.34.13.05.37.19.35.22-.45.11.26.4.19.66-.37-.11-.65-.57-.56-.19-.29,0-.52-.37-.63-.53.22.46-.49.14-.64.18l-.08-.21a.19.19,0,0,1,0,.22l.41.24c-.11,0-.14.05-.3-.08.2.25.65.45.9.82-.24-.07,0,.38-.48,0,.34-.08-.52-.37-.45-.62,0,.09,0,.13-.11.13a.26.26,0,0,1-.11-.13c-.61-.14.47.54.28.75-.25-.25-.56-.37-.53-.29.08-.08.49.33.64.59-.33,0,0,.28,0,.34h.17c.25.26.15.3.16.47-.22-.17-.07-.21-.2-.25.39.5-.69-.17-.5.25-.24-.09-.51-.43-.69-.47.21.46-.52-.14-.38.28.41.26.33.17.57.6v-.5l.37.63c.08-.08-.07-.38,0-.38.22.34.14.26.47.47-.64-.34.12.51-.37.34l-.89-.78c-.57-.14.15.76-.31.81l.23.06c.31.35-.1.2,0,.41a3,3,0,0,0-.65-.45c.22.2-.19.17.36.73l-.48-.24c-.34,0,.59,1,.3,1.1-.25-.36-.53-.47-.62-.81-.07.05-.17.06,0,.25-.21-.14.2.56-.12.35.1.15.38.46.28.5a1.11,1.11,0,0,1-.13-.14c.13.14.06.3.43.55-1-.72-.52.6-1.38-.06a1.26,1.26,0,0,1-.27.57c-.06-.1-.11-.16-.06-.14-.39-.18.54,1,.08.82-.47-.46-.08-.36-.28-.52-.74-1.07-.16.32-.69-.25v-.09c-.29-.34.09.52-.1.51l-.07-.18a1.4,1.4,0,0,1-.17,1.22,2.49,2.49,0,0,0-.08-.82c-.06.1.16.85,0,1a3.08,3.08,0,0,1-.24-1.08l.1,0c-.1-.74-.11,0-.18-.07v-.33c-.11.12-.21,1-.43.92l0,.25c-.32.84,0-.47-.29.14l.21-.86c-.1.2-.53.76-.77.81a10.46,10.46,0,0,0,.83-1.16s-.18,0-.4.39c.06-.07.17-.25.14-.12-.33.61-.65.86-.8.72.46-.72.45-.86.42-1s-.09-.22.34-.7c-.25.16-.25,0-.18-.12s.21-.29.15-.33c-1.07.56,0,0-1.18.45-.09,0-.08-.08,0-.11a4,4,0,0,0,.61-.5c.32-.19.29,0,.55-.07,0-.27.47-.25.73-.51-.41.17-.63.1-.51-.08l-.48.36c-.73-.15.89-.6.17-.75h.4c-.27-.1-.2-.65-1.19-.51.13-.08.43-.22.54-.17,0-.46-1.29-.6-.83-1.11l.29-.06c-.1-.05-.57,0-.32-.15.12,0,.29-.06.3-.1s-.57,0-.44-.19l.35,0c.23-.52-1-.34-1.3-.61.84-.29,1-.7,1.07-.9l.12,0c-.06-.5-1-.54-1.44-.84.8-.59,0-1,.39-1.64a1.35,1.35,0,0,1-.76.18c.13-.16-.67-.06.09-.33v0c.71-.35.44-.48.4-.64l-1,.34c1.29-.95-.93-.89.27-1.6-.28,0-.33-.13-.61-.13l.53-.2a.83.83,0,0,0-.21-.78l.4-.08c0-.2-1.61.34-1.71.17l.77-.35c-.14-.33.42-.93-.42-1,.12,0,.35-.12.4-.07,0-.17.3-.82-.76-.35.71-.27-.06-.37-.44-.43l.53-.17c-.72.1-.91.16-1.17,0,0-.07.4-.2.29-.08.21-.27-.54.05-.34-.26l.36-.05c0-.18-.2-.1-.62,0-.25,0,0-.38.47-.58-.3.08-.72.13-.62,0a.82.82,0,0,1,.36-.09c.24-.42-.77-.2-.34-.59a1,1,0,0,0,.3-.15c.08.23.12.43.07.43.48-.19.5-.4,1.22-.51-.42,0-1.3,0-1.15-.23l.16-.09h.06c0-.06,0-.08-.12-.08.06-.09.1-.15.09-.21.39-.17.14-.29.12-.39-.52.21-.48.05-.88.33,0,0,.07,0,.12.05s0,0,.07,0h-.05a1.3,1.3,0,0,1,.12.21c-.29,0-.55,0-.29-.17l-.9.19c.69-.41,1-.8,1.43-1-.4-.17-.44-.59-1.5-.4-.15,0,.25-.2.4-.29s.12.07.27,0c-.31-.07-.27-.44-1-.23.24-.31.68-.12.47-.35l.22,0c.91-1-2.09-.25-.89-1.37a.55.55,0,0,1-.22.16c.38-.91-1.09-1.23-.32-2.26.13-.26-.32-.13-.7-.13l.56-.24-.73,0c-.58-.13,1.24-1,.21-1l-.38.18c0-.16-.35-.35.1-.47-.08,0-.42.09-.23,0l.3-.1-.62-.16c.14-.32,1.21-.33,1.16-.71a2.28,2.28,0,0,0-1.19,0c0,.06-.15.2-.45.29l-.19-.08a5.71,5.71,0,0,0-2.37.93l.61.05-.41.21-.08-.18c-.38.23,0,.19.27.19a1.29,1.29,0,0,0-.44.24l.91-.05c-.34.13-.72.12-.86.32.42,0,.75-.34,1.06-.25-.37.23-.71.31-.33.32a.92.92,0,0,1-.49.09c.31,0,.21.26.7.16-.47.27.25.33-.6.59.22,0,.73,0,.79.07-1.06.15.07.4-1,.7.94-.16.56.37,1.14.43-.07,0-.23,0-.19,0,0,.16-.28.29-.42.44a4.12,4.12,0,0,1,1.48-.13c-.66.41-.9.2-1.57.49.6-.22.7.07,1.18-.15a3,3,0,0,1-.77.46c.93-.3.2.06.8,0-.39.34-.85.35-.5.45A1,1,0,0,1,646.43,354.45Zm3.32,4.12h0l-.07-.08Zm.15.38a.28.28,0,0,0,0-.17c.18-.09.37-.14.37-.1S650,358.84,649.9,359Zm3.34-2.19c.1,0,0,.09-.1.14a.26.26,0,0,0-.11-.08H653Z"/><path class="cls-14" d="M652.51,356.91h0l-.1.08.17,0Z"/><path class="cls-14" d="M670.4,363.17h0l.07,0Z"/><polygon class="cls-14" points="650.94 364.71 651.07 364.65 650.94 364.67 650.94 364.71"/><path class="cls-14" d="M673.31,362.44l.13.06Z"/><path class="cls-14" d="M674,361.71h.24A.62.62,0,0,0,674,361.71Z"/><path class="cls-14" d="M674.66,361.26l-.19-.15h0Z"/><path class="cls-14" d="M667.89,371.45a0,0,0,0,0,0,0C667.93,371.62,667.92,371.55,667.89,371.45Z"/><path class="cls-14" d="M669.12,367.76c0,.09.11.18.14.25S669.37,368,669.12,367.76Z"/><path class="cls-14" d="M665.51,375.1h0l0,0Z"/><path class="cls-14" d="M669.15,368.14c.12,0,.14,0,.11-.13S669.11,368.05,669.15,368.14Z"/><path class="cls-14" d="M676.81,358.81h0l-.07-.06Z"/><path class="cls-14" d="M676.78,358.74l0-.08S676.73,358.69,676.78,358.74Z"/><path class="cls-14" d="M676.69,358.51l.06.15S676.8,358.63,676.69,358.51Z"/><path class="cls-14" d="M676,359.43l.16.13Z"/><path class="cls-14" d="M675.87,359.71c.08,0,.45.12.41,0l-.12-.11C676.37,359.78,675.63,359.45,675.87,359.71Z"/><path class="cls-14" d="M673.08,359.23l.29-.11c-.2-.09-.47-.21-.45-.34C672.21,358.66,673.36,359,673.08,359.23Z"/><path class="cls-14" d="M672.36,359.7c0-.18-.26-.19-.35-.27C672.12,359.62,672.14,359.67,672.36,359.7Z"/><path class="cls-14" d="M669,364.35l-.4-.31C668.58,364.17,668.74,364.16,669,364.35Z"/><polygon class="cls-14" points="670.47 366.8 670.79 366.91 670.44 366.59 670.47 366.8"/><polygon class="cls-14" points="667.16 365.15 667.13 365.07 667.17 365.32 667.16 365.15"/><path class="cls-14" d="M661.34,372.23l.43.46C661.75,372.56,661.29,372,661.34,372.23Z"/><path class="cls-14" d="M659.3,374c0-.35,0-.57-.08-.24C659.25,373.81,659.25,374.07,659.3,374Z"/><polygon class="cls-14" points="656.05 363.97 656.28 363.97 656.06 363.88 656.05 363.97"/><path class="cls-14" d="M255.46,300.25c0,.25,0,.84,0,.72l.05-1Z"/><path class="cls-14" d="M255.92,302.08a10.36,10.36,0,0,0,.1-2.24c-.07,1-.09.56-.17,1.69-.07.12-.12-.31-.11-.68,0,.26-.11-.22-.14.41s.21.79.32.16A4.84,4.84,0,0,1,255.92,302.08Z"/><path class="cls-14" d="M262.68,303.33l-.05-.11A.38.38,0,0,0,262.68,303.33Z"/><path class="cls-14" d="M266.92,303.46s0,.12,0,.21A.37.37,0,0,0,266.92,303.46Z"/><path class="cls-14" d="M267.77,304.45l0-.06C267.75,304.48,267.77,304.52,267.77,304.45Z"/><path class="cls-14" d="M262.68,303.33l.14.31C262.8,303.31,262.74,303.4,262.68,303.33Z"/><path class="cls-14" d="M256.79,299.67a1,1,0,0,0-.05.27.58.58,0,0,1,.05-.11Z"/><path class="cls-14" d="M260.89,304.27h0v.4Z"/><path class="cls-14" d="M259.47,304.49a10.67,10.67,0,0,0,0-1.17,2.58,2.58,0,0,1,0,.58Z"/><path class="cls-14" d="M257.17,303.09l0,.11Z"/><path class="cls-14" d="M261.92,304.38l0,.3C262,304.58,261.94,304.48,261.92,304.38Z"/><path class="cls-14" d="M283.56,317.1l-.15,0A.36.36,0,0,0,283.56,317.1Z"/><path class="cls-14" d="M279.68,319.3l-.05,0-.46.08Z"/><path class="cls-14" d="M269.25,305.34v0C269.22,305.42,269.23,305.4,269.25,305.34Z"/><path class="cls-14" d="M276.32,303.37c.78-1,1.19-1.29,2-2.34C278,301.46,276.81,302.75,276.32,303.37Z"/><path class="cls-14" d="M256.83,299.78h.06S256.84,299.75,256.83,299.78Z"/><path class="cls-14" d="M278.36,301h0l.07-.1Z"/><path class="cls-14" d="M272.22,304.35c0-.15-.06-.25-.09-.36A2.3,2.3,0,0,0,272.22,304.35Z"/><path class="cls-14" d="M269.77,303.53l.07.11C269.81,303.56,269.79,303.54,269.77,303.53Z"/><path class="cls-14" d="M273.17,303c.05.06.08.17.1.05l0-.09C273.24,303,273.23,303.09,273.17,303Z"/><path class="cls-14" d="M274.33,302.73l0-.16v.05Z"/><path class="cls-14" d="M282.82,313.84c-.24,0-.5.07-.75.09C282.66,313.88,282.89,314,282.82,313.84Z"/><path class="cls-14" d="M256.8,300.15a1.81,1.81,0,0,1,0-.37l0,.05A2.92,2.92,0,0,0,256.8,300.15Z"/><path class="cls-14" d="M272,296.42l.2.09A.22.22,0,0,0,272,296.42Z"/><path class="cls-14" d="M283.06,305.72l.1.08S283.16,305.75,283.06,305.72Z"/><path class="cls-14" d="M272.69,296.28a3.58,3.58,0,0,0,.21.55l0-.21Z"/><path class="cls-14" d="M282.06,313.93h0Z"/><path class="cls-14" d="M284.14,314.93c0-.17-1.09,0-1.72,0-.33-.17.8-.16,1.36-.27-.3-.09-1.32-.11-1.28-.21a3.06,3.06,0,0,1,.47,0c-.89-.07-.07-.38-1.19-.47l.28,0c-.55.06-1.12.1-1.52.12,0-.08-.7-.11,0-.18,0,.05.27,0,.5.05l-.32-.07c1-.13.36.1,1.13,0-.34-.13-1.21-.28-.92-.41,1-.08.35.26,1.25.06l-.38.2c1.6-.22-.11.12,1.6-.1.29-.25-.53-.24-.24-.49-.57,0-.84,0-1.4,0-1-.31,2.54-.35,1.18-.55-.68-.05-2-.05-1.29-.24l1.15,0c.11-.23-1.66-.1-.88-.36.45,0,.38.18.52.14.9-.17-.66-.1-.66-.22l1,0c-.16-.24-.91-.51-1.08-.79a3.22,3.22,0,0,0,.93,0c-.5-.35.13-.73.75-1l-.87-.16a1.49,1.49,0,0,1,.57,0c.34-.11-.56,0-.9-.11-.06-.07.51-.07.77,0-.73-.26-1.58-.75-.62-.93l.26.07c.37-.16-1.78-.34-.95-.46l.15,0c.41-.37-.36-.91,1-1.09-1.26-.19.6-.34-1.15-.56a7.11,7.11,0,0,0,1.82-.28c.09-.07-1.08-.27-1.24-.4l.91.12a8.53,8.53,0,0,1-.93-.32l1.12,0-.21-.21a1.25,1.25,0,0,1-.7.08c-.39-.28.74-.62,1.23-.64-.23-.25-.46-.47-.67-.68a1.37,1.37,0,0,1,.7.18c-.88-.32,1-.14.21-.44a3.34,3.34,0,0,1-.76,0c.61-.22.71-.65.52-.89l.66-.07c.3-.61-.08-1.1.12-1.73a3.3,3.3,0,0,1-1.69.6l1.12-.47c-.66.15-.46.32-1.24.42a3.8,3.8,0,0,1,1.62-.63l-.31-.12c.34-.15.5-.16.92-.31-.67.18,1.28-1,.11-.65l.34-.17c.2-.69-.11-.79,0-1.29-1.05.6-.75.26-1.57.65.42-.53,1.39-1.5,1.44-1.89-.47.08-.92.58-1.54.93,1-.75,1-1.11,1.72-1.43,0-.4,0-.56-.68-.46-.46.43-.67.65-1,.92-.15.05.51-.6,1-1l.1-.06c-.71.34.18-.68,1-1.76s1.63-2.15.53-1.27l.11-.09-.28.17-1.18.92c-.07-.12,1-.87,1.41-1.49-1.2,1-1.35,1-1.46.92s-.14-.23-.9.43c1.16-1.5.68-1.33.13-1s-1.19.74-.8-.12l-.48.68c-.64.72.11-.34.11-.47a7.26,7.26,0,0,1-.64,1c-.9.58-1.3.48-1.72.25a3.65,3.65,0,0,0-1.44-.69c-.48,0-1.46,3.23-1.5,1.93l.54-1.16a2.42,2.42,0,0,1-1.62,1,1.83,1.83,0,0,0-1.42.76c.07-.25.09-.56.18-.57-.16-.7-.74.14-.71.73-.14,0,0-.54-.14-.82s-.43,1-.58.34A.48.48,0,0,1,274,296c-.1.38-.61,0-.38.83-.19-.16-.34,0-.47.07s-.15.19-.29,0c.09.93-.39-.37-.17.92-.25-1.33-.53-1-.53-.36,0-.41-.18-.4-.24-1-.12,0-.2.31,0,1-.53-1.56-.25,1.37-.76-.65a5.51,5.51,0,0,1-.85,1.71c-.21-1.34.37-.2.11-1.6-.23.61-.24,1.79-.63,1.52-.12-.17,0-.59,0-.82-.25.61-.67,0-.86.75a1.14,1.14,0,0,1,0-.37c-.05.06-.17-.17-.07.43l0-.17a11.89,11.89,0,0,1,.1,2.35c-.16-1.76-.37-.39-.53-2.62a2.77,2.77,0,0,0,0,.82,1.64,1.64,0,0,1-.14-.82c-.16.37,0,1-.19,1,0-.3,0-.42-.05-.77,0,.59,0,1.18-.23.95,0-.18-.07-.41,0-.41-.26.13-.27,1.6-.66,1.09-.07-1.3-.16-.41-.32-1.52l-.12.35.13.53c-.14,0-.17.83-.34.48l.05-.47-.25.24.21.41c-.08.59.19,1.4,0,1.11,0-.11-.15,0-.3-.64h0c0,.36-.07.74-.21.48s-.12-1.23-.17-1.47c0,.94-.31.3-.29,1.3a7.35,7.35,0,0,0-.08-.94l0,.76a2.35,2.35,0,0,1-.16-.81c-.22-.12.22,1.4-.09.82,0-.06,0-.17,0-.29-.28-.29-.42.53-.69.18-.18-1.12.17-.3,0-1.24-.3.24-.54,1.41-.88,1.18l.07.12c.1,1.59-.3-.76-.39,0a3.63,3.63,0,0,0,0-.71c-.23-.23-.4.43-.69.95v-.41c-.15-.35-.35-.18-.5-.35a2.9,2.9,0,0,0,0,.94c-.59-2.29-.73,1.29-1.23-.61a.69.69,0,0,0,.05-.37l-.3.4a5.49,5.49,0,0,0,.17.95c0,.41-.09.74-.17.74a3.63,3.63,0,0,0-.15-1.49c0,.21,0,.44,0,.66-.24-1.22.05,1.39-.23.58v-.37c-.07.19-.13.68-.23.58-.08-.8.08-.38,0-1-.13.05-.18,1.53-.34.74,0-.23.12-.24.17-.46-.18-.93-.18-.69-.28-.84v0l-.24-.41.07.25c-.07,2.09-.32.4-.48,1.77a4.92,4.92,0,0,0,0-1.66,2.3,2.3,0,0,1-.15-.78c-.08.74-.19-.57-.3.51,0-.29-.11,0-.11-.76-.13.23.05.5.05.87-.17,1-.52-1.2-.78.18-.24.58-.26,1.56-.49,2.06a3.23,3.23,0,0,1,0-1.07c-.14-.42-.23-.34-.35,0a3.81,3.81,0,0,0,0-.8c-.1.07-.05,1.06-.19.63,0-.32,0-.85.08-1.17-.11.27-.22.81-.33,1.08a4.28,4.28,0,0,1,.1-1.11,2.2,2.2,0,0,0-.38,1.27l.09.29a2.87,2.87,0,0,1,0-.84c.11-.63.17.28.18.57l-.08.19c.11,1.72.34-.28.52-.18l-.06,1.25.16-1a3.78,3.78,0,0,1,0,1.21c.13.61.1-.45.22.24a.78.78,0,0,1,0,.22l.11-.38c0,.26.05.88,0,.7.24.72.33-.94.44,0l0,.08c.3-.43,0-.92.2-2l.23,2.25v-.91s.1.1.1.46c.09-.63,0-.4,0-1,.18.83.41-.4.49,1.06,0-.7-.16-.54,0-1,.11,1.57.18-.27.35.44,0,.81-.16.39,0,1.11,0-1.38.29.28.4,0,0-1.09.23-.47.42-.84,0,.36.4.58.6,1v.19c0-1.11.18-.91.3-1.15a5.34,5.34,0,0,1,0,1.22h.13a1.52,1.52,0,0,1,.11-.67l0,.82c.17-.06.29-1,.55-.46a10.22,10.22,0,0,1-.12-2.65,6.72,6.72,0,0,1,0,1.3c0-.06.05-.35.1-.18l0,.71c.12.3,0-.59.1-.53,0,.59.08.42.1.89,0,.06-.08-.24-.1,0a1.92,1.92,0,0,1,.3.89,2.61,2.61,0,0,1,0-.87c.17-.06.11.7.23,1,0-.41.16,0,.1-.88.05,0,.09.41.12.65.07-.4.42-.15.24-1.08l0-.06,0,0h0c.22-.9.64.45.91,0l0,.3c.14-.35.37-.24.43-.88a2,2,0,0,1,.19.88c.11-.24.09-.57.33-.1-.08.52.09.45-.1.39.2.23.28.7.39-.12,0,.76.23.94.29.7l-.18-.53c.08-.12.17-.06.26,0l.06,1c.49,1.17.42-2.13.91-.14,0-.7-.25-.46-.25-1.28a11.6,11.6,0,0,1,.56,1.51c.29.52,0-1.47.32-1.12a4.17,4.17,0,0,1-.08-1.65,4,4,0,0,1,.31,1.76s-.07-.08-.08-.2a1,1,0,0,0,0,.67l0-.35c.12.35.35.28.37.87a.9.9,0,0,0-.14-.76c.28.49.33,0,.59.29a2.15,2.15,0,0,1-.11-.6c.38.39.05-.69.25-.87.19.52.12,1.29.28.81a2.78,2.78,0,0,1,.14,1.22c.11-.7.43.4.56.51l-.06.3c0-.18.09-.18.14-.19l-.16-.69a.57.57,0,0,1,.18.4,16.5,16.5,0,0,1-.18-1.81c.13.34.19-.43.35.51-.3-.28.17.93,0,1.11,0-.11.08-.12.16,0a.73.73,0,0,1,0,.25c.37.8,0-1.08.21-1.09.05.53.21,1,.24.87s-.18-.87-.15-1.29c.22.39.13-.33.22-.3l-.12-.17c0-.54,0-.48.13-.66.07.41-.06.3,0,.47,0-.94.44.92.51.27.14.34.17,1,.28,1.21.09-.71.33.69.44.09a2.58,2.58,0,0,1-.12-1.23l-.26.55.05-1.06c-.1,0-.14.48-.22.37a2.26,2.26,0,0,0-.11-1c.3,1,.17-.66.44,0l.29,1.75c.37.73.28-1,.67-.59l-.16-.28c-.07-.7.18-.13.23-.43a6.53,6.53,0,0,0,.31,1.14c-.09-.43.23,0,.05-1.17l.28.74c.31.27,0-1.71.26-1.56a7,7,0,0,1,.16,1.52c.08,0,.17.09.1-.32.12.36.08-.82.26-.28,0-.27-.12-.88,0-.85a2.84,2.84,0,0,1,0,.29,3.1,3.1,0,0,0-.14-1.05c.59,1.78.7-.27,1.16,1.26a1,1,0,0,1,.26-.5c0,.18,0,.3,0,.24.15.53,0-1.73.21-1.15.1,1-.08.55,0,.9,0,1,.05.92.09.74s.13-.48.12.11l0,.12c0,.68.2-.8.32-.68l-.06.31a4.13,4.13,0,0,1,.78-1.8,9.33,9.33,0,0,0-.39,1.28,12.55,12.55,0,0,1,.56-1.61,10.5,10.5,0,0,1-.41,1.73l-.11.07c-.32,1.16.12-.06.11.13l-.19.52c.15-.19.68-1.52.83-1.47l.16-.39c.71-1.36-.25.72.32-.29l-.63,1.35a12.45,12.45,0,0,1,1.19-1.67c-.67,1.05-1.07,1.6-1.42,2.21,0,0,.19-.13.6-.82-.1.14-.3.48-.21.27a5.36,5.36,0,0,1,1.24-1.69c-.84,1.37-.87,1.52-.86,1.6s.1.07-.65,1.16c.43-.54.43-.45.32-.24s-.34.54-.22.44c1.88-2.28.1-.08,2.1-2.44.19-.17.19-.13.06,0-.35.45-.73.92-1.12,1.38-.61.7-.51.54-1,1.08-.12.17-.9,1-1.48,1.65.79-.86,1.16-1.24.87-.91l1-1.11c1.33-1.33-1.87,2-.6.73l-.76.78.29-.29,1.57-1.45-1.09,1c-.15.17.34-.26.7-.53s.62-.42.05.09l-.55.44c.16-.12,1-.8.46-.33l-.57.46c.19-.15.93-.69.61-.42l-.6.45c-.71.57,1.42-.95,1.73-1l-2.28,1.55-.22.13a11.42,11.42,0,0,1,1.74-.62,4.87,4.87,0,0,0-1.05.56c-.09.07-.09.14-.52.26a10.58,10.58,0,0,1,1.21-.22c-.28.07.93-.05-.32.13h0c-1.24.21-.91.17-1,.2l1.62-.11c-1.19.16-1,.17-.75.27s.49.2-.55.22c.38.15.35.27.73.42l-.84-.11c-.24.24-.37.37-.2.73l-.6-.14c-.07.19,2.41.5,2.44.67l-1.26-.07c0,.32-1.15.57,0,1a1.84,1.84,0,0,1-.6-.12c0,.15-.9.55.84.61-1.13-.08-.14.33.36.53l-.84-.07c1.06.21,1.35.23,1.64.44-.11.05-.67,0-.45,0-.45.14.78.16.33.34l-.53-.1c-.08.16.21.16.83.28.33.11-.23.3-1,.3.46,0,1.07.15.85.24a2.18,2.18,0,0,1-.54-.06c-.58.27,1,.43.14.61a4.23,4.23,0,0,0-.5,0c0-.22.07-.4.13-.38a8.55,8.55,0,0,1-2,0c.58.16,1.84.43,1.47.6l-.27,0-.08,0c-.08,0,0,.08.12.11-.13.06-.22.1-.24.15-.63,0-.34.21-.37.3a6.6,6.6,0,0,0,1.41,0c-.06,0-.1,0-.14-.08s0,0-.09,0h.08a.64.64,0,0,1-.06-.22c.43.07.79.14.32.24l1.36.12c-1.17.12-1.8.37-2.53.41a2.36,2.36,0,0,0,1.91.77c.21.07-.45.11-.7.14s-.14-.09-.36-.11c.41.14.17.46,1.28.45-.49.21-1-.07-.83.19l-.34,0c-1.75.64,2.86.69.64,1.4a1.33,1.33,0,0,1,.38-.09c-1,.75,1.06,1.24-.45,2.06-.3.23.41.16,1,.2l-.9.16,1.06,0c.8.16-2.13.78-.65.92l.59-.13c-.09.14.42.32-.27.41.11,0,.63-.06.32,0l-.47.08.86.17c-.3.29-1.87.27-1.9.64a4.77,4.77,0,0,0,1.73,0c0-.05.26-.18.73-.26l.26.06a16.35,16.35,0,0,0,3.72-.83l-.87,0,.66-.17.06.14c.62-.19.05-.15-.34-.14a6.24,6.24,0,0,0,.73-.2l-1.35,0a6.43,6.43,0,0,0,1.36-.26A13.62,13.62,0,0,1,282,318c.61-.19,1.13-.25.58-.26a2.88,2.88,0,0,1,.74-.07c-.44,0-.22-.2-1-.14.76-.2-.24-.27,1.07-.45a3.82,3.82,0,0,1-1.12-.08c1.59-.07.06-.32,1.74-.5-1.42.07-.68-.31-1.48-.41.11,0,.34,0,.27,0a3.28,3.28,0,0,1,.79-.3,10.62,10.62,0,0,1-2.19,0,21.35,21.35,0,0,1,2.47-.22c-.95.11-1-.13-1.76,0a7.58,7.58,0,0,1,1.29-.27c-1.46.12-.25-.07-1.16-.07.71-.22,1.36-.16.91-.28A2.52,2.52,0,0,1,284.14,314.93Zm-2.69-3.79h0l0,.09Zm0-.33a.18.18,0,0,0,0,.14,1.5,1.5,0,0,1-.57,0A2.56,2.56,0,0,0,281.45,310.81Zm-5.86.7c-.12-.06.05-.08.22-.08a.3.3,0,0,0,.1.1H276C275.85,311.53,275.7,311.53,275.59,311.51Z"/><path class="cls-14" d="M276.7,311.62l.06,0,.19,0-.26,0Z"/><path class="cls-14" d="M262.62,303.2v0a.37.37,0,0,1,0-.12Z"/><polygon class="cls-14" points="283.39 306.38 283.18 306.35 283.36 306.4 283.39 306.38"/><path class="cls-14" d="M260.48,300.45a1.43,1.43,0,0,0,0-.22A1,1,0,0,0,260.48,300.45Z"/><path class="cls-14" d="M259.64,300.3l-.13-.29A1.18,1.18,0,0,0,259.64,300.3Z"/><path class="cls-14" d="M259,299.91v.36h0Z"/><path class="cls-14" d="M268.88,298s0,0,0,0C268.93,297.75,268.9,297.82,268.88,298Z"/><path class="cls-14" d="M266.17,300.32a3.55,3.55,0,0,1,0-.41C266.15,299.85,266.11,299.84,266.17,300.32Z"/><path class="cls-14" d="M272,296.41h0Z"/><path class="cls-14" d="M266.36,299.91c-.08-.16-.12-.12-.15,0S266.33,300,266.36,299.91Z"/><path class="cls-14" d="M256.23,299.6l0,0v.13Z"/><path class="cls-14" d="M256.2,299.7l0,.1S256.19,299.8,256.2,299.7Z"/><path class="cls-14" d="M256.09,300l.07-.22S256.11,299.78,256.09,300Z"/><path class="cls-14" d="M257.07,300v0Z"/><path class="cls-14" d="M257.33,299.89c-.07-.07-.17-.65-.25-.46v.25C257.11,299.22,257.28,300.4,257.33,299.89Z"/><path class="cls-14" d="M258.52,303.63l-.23-.24c0,.33.12.77,0,.85C258.62,305.2,258.23,303.51,258.52,303.63Z"/><path class="cls-14" d="M259.23,304.08c-.11.15,0,.47,0,.65A.86.86,0,0,0,259.23,304.08Z"/><path class="cls-14" d="M264.23,303.74l.06.76C264.38,304.38,264.27,304.21,264.23,303.74Z"/><polygon class="cls-14" points="264.77 299.7 264.64 299.23 264.67 299.94 264.77 299.7"/><polygon class="cls-14" points="265.92 305.07 265.89 305.19 266.01 304.89 265.92 305.07"/><path class="cls-14" d="M274.31,303.5l-.21-.92C274.07,302.75,274.26,303.8,274.31,303.5Z"/><path class="cls-14" d="M276.09,302.12c-.21.53-.33.87-.06.33C276,302.39,276.17,302,276.09,302.12Z"/><polygon class="cls-14" points="275.92 305.09 275.6 305.09 275.87 305.11 275.92 305.09"/><path class="cls-14" d="M974.85,3883.28c.21.18.78.33.77,0l-.87-.52Z"/><path class="cls-14" d="M977.22,3882.13a2.87,2.87,0,0,0-1.93-1.23c.78.63.38.57,1.33,1.29,0,.3-.47.35-.79.18.2.18-.36.34.18.69.85-.08,1-.51.6-1.18A1.12,1.12,0,0,1,977.22,3882.13Z"/><path class="cls-14" d="M988,3856.83l-.17.13A.33.33,0,0,0,988,3856.83Z"/><path class="cls-14" d="M994.32,3841a.23.23,0,0,0,.13.25C994.43,3841.13,994.41,3841,994.32,3841Z"/><path class="cls-14" d="M996.33,3838.66a1.42,1.42,0,0,0-.12.13C996.32,3838.76,996.39,3838.72,996.33,3838.66Z"/><path class="cls-14" d="M988,3856.83l.45-.32C988.17,3856.37,988.16,3856.65,988,3856.83Z"/><path class="cls-14" d="M976.26,3877.75a.61.61,0,0,0,.16.32,2.29,2.29,0,0,1,0-.25Z"/><path class="cls-14" d="M986.23,3864.16l-.05.13a3.86,3.86,0,0,0,.34.24Z"/><path class="cls-14" d="M984.41,3869.62c.08-.11-.7-.44-1-.61.3.19.43.33.45.46A2.83,2.83,0,0,0,984.41,3869.62Z"/><path class="cls-14" d="M979.91,3877.7l.06.19S979.94,3877.76,979.91,3877.7Z"/><path class="cls-14" d="M987.8,3860.34a1,1,0,0,0,.3.06A1.07,1.07,0,0,0,987.8,3860.34Z"/><path class="cls-14" d="M1036.59,3706.79a.78.78,0,0,0,.14.05C1036.66,3706.78,1036.61,3706.75,1036.59,3706.79Z"/><path class="cls-14" d="M1042.78,3701.94l0,.1.43.18Z"/><path class="cls-14" d="M999.16,3834l0,0C999.18,3834.2,999.19,3834.12,999.16,3834Z"/><path class="cls-14" d="M1015.17,3787.92c-.9.26-.6-1.18-1.67-.68C1013.83,3787.28,1014.47,3788.4,1015.17,3787.92Z"/><path class="cls-14" d="M976.41,3877.65a1,1,0,0,1,.08-.23A.31.31,0,0,0,976.41,3877.65Z"/><path class="cls-14" d="M1013.5,3787.24h0l-.1.05Z"/><path class="cls-14" d="M1002.85,3822.33a1.74,1.74,0,0,0-.39,0A.78.78,0,0,0,1002.85,3822.33Z"/><path class="cls-14" d="M998.62,3830.51l.18-.18A.44.44,0,0,0,998.62,3830.51Z"/><path class="cls-14" d="M1003.34,3817.47c.1-.09.23-.09.18-.29l-.12,0C1003.49,3817.29,1003.51,3817.39,1003.34,3817.47Z"/><path class="cls-14" d="M1005,3812.83l-.19,0s0,.11,0,.16Z"/><path class="cls-14" d="M1031.87,3721a3.5,3.5,0,0,1,.79.05C1032.07,3720.94,1032.12,3720.18,1031.87,3721Z"/><path class="cls-14" d="M976.71,3877.91c-.19-.1-.28-.18-.3-.26a.91.91,0,0,0,0,.17A.67.67,0,0,0,976.71,3877.91Z"/><path class="cls-14" d="M997.15,3815l.38-.69A2.52,2.52,0,0,0,997.15,3815Z"/><path class="cls-14" d="M1020,3754.34l0-.21A.16.16,0,0,0,1020,3754.34Z"/><path class="cls-14" d="M998.21,3812.1a1.41,1.41,0,0,0,.7-.22.73.73,0,0,0-.18-.16Z"/><path class="cls-14" d="M1032.67,3721.07h0Z"/><path class="cls-14" d="M1032.54,3715.54c-.27.69.9.69,1.45,1.06,0,.94-.91.11-1.55.2.09.63.9,1.37.72,1.75-.18,0-.27,0-.45-.15.62.85-.56,1.66.25,2.68a.91.91,0,0,1-.29,0,6,6,0,0,1,1.47.42c-.1.32.44.82-.28.69.09-.18-.18-.3-.36-.47l.18.44c-1.09-.06-.18-.57-.9-.83.08.75.62,1.8.17,2.19-1-.24.09-1.27-1-.92l.64-.63c-1.72,0,.28-.42-1.53-.47-.64.9.08,1.29-.56,2.19.45.42.81.21,1.26.63.45,1.77-2.81.25-1.91,1.76.54.5,1.71,1,.8,1.56l-1-.65c-.46.93,1.36,1.12.26,1.87-.36-.33-.08-.89-.27-.79-1.09.35.45.69.27,1.19l-1-.24c-.22,1.09.06,2.48-.18,3.69-.26-.17-.49-.47-.88-.31,0,1.62-1.24,3-2.31,4.23l.64.83c-.06.12-.46.1-.57-.1-.51.43.51.22.74.6,0,.33-.62.24-.8,0,.36,1.21.53,3.28-.72,4l-.18-.29c-.62.67,1.38,1.5.34,2l-.09-.19c-1,1.58-.9,3.74-2.63,4.59,1.11.68-1.14,1.49.49,2.2-1.18.68-1.38.29-2.43,1.47-.21.34.84.92.85,1.43l-.87-.3.69.95-1.16,0,.07.5a.74.74,0,0,1,.76-.1c.16.81-1.19,1.4-1.64,1.26l.17,1.83c-.34-.16-.37-.47-.51-.75.58,1.15-1-.18-.44.88.24,0,.5.24.67.32a1.84,1.84,0,0,0-1,1.79l-.55-.34c-.58,1.11-.6,2.56-1.09,3.86.45-.36,1.45.12,1.41.54l-1-.18c.48.45.49-.27,1,.48-.28.45-1.16,0-1.36-.43l.11.71c-.29-.07-.39-.26-.72-.42.48.45-1.3.69-.43,1.4l-.29-.07c-.48,1.31-.38,2-.71,3.1.78.3.45.66,1,1.21-.53.69-1.47,1.33-1.75,2.3.16.8.61.43,1,.9-.74-.21-1,.75-1.36.08a8.4,8.4,0,0,0-.31,3.14c.36,0,.55-.18.76,0,0,.3-.51.48-.85.32l0-.09c.5,2-3.45,2.94-2.4,4.76l-.05-.09.31,1.61c-.35.56-.42-.57-1-.28.69,1.87-1,2.2-.61,3.67-2.46.14-1,3.29-2.83,4l.53.11c.38.5-.43.28-.63.47.41.11.58-.18.78.12-.37,2.91-2.74,5.3-4.2,7.9-.5,1,2.39,1.51.73,2.35l-.8-.7c.38,2.44-1.54,4.16-1.32,6.5-.17-.2-.45-.3-.37-.5-.83.18-.6,1.55-.05,1.76-.18.28-.53-.11-.88,0-.55.28.48,1.37-.27,1.35-.12,0-.18-.19-.2-.29.23.39-.55,1.25.33,1.27-.65.62-.17,1.56-.85,2,.73.71-.89,1.13.3,1.7-1.25-.51-1.5.94-1.07,1.63-.33-.29-.55.27-1-.11-.18.55-.12,1.13.57,1.27-1.89.45.51,2.45-1.65,2.3a25.14,25.14,0,0,1-.2,5.07c-1.25-.52.46-1.65-.9-2.07,0,1.56.83,2.75,0,4-.3.29-.48-.4-.65-.6,0,1.56-1.07,2.61-.82,4.07-.12,0-.2-.22-.25-.38,0,.26-.39.49.2.67l-.08-.29c1-.08,1.41,1.59,1.84,1.79-1.51-1-.85,1.06-2.71-.35a.88.88,0,0,0,.65.6c-.2.19-.45.19-.8-.21,0,1,.73.89.43,1.67-.28-.11-.33-.31-.63-.5.41.59.81,1.18.33,1.75-.15-.1-.4-.1-.32-.29-.33,1.16.75,2.45-.22,3.5-1.09-.81-.56.28-1.63,0l.07.78.61-.08c-.23.58.35,1.37-.18,1.75l-.27-.59-.2,1.17.62-.48c.33.79,1.36.42.78,1.09,0-.2-.22.58-1,.66h0c.23.41.47.83.05,1.17-.37,0-1.13-.51-1.38-.52.78.61-.25,1.46.56,2.16a1.91,1.91,0,0,0-.86-.41l.63.5c-.32.19-.45.19-.87,0-.43.77,1.43.23.5,1,0-.1-.15-.1-.2-.3-.65.86-.23,2-.9,2.8-1.16-.12,0-.87-1-.89-.27,1.36.31,3.12-.39,4.28l.2-.19c1.43.71-1.08.66-.6,1.54,0-.19-.76-.5-.61-.4-.54.77-.26,1.88-.25,3.34l-.33-.3c-.53.38-.68,1.25-1.05,1.73.33.3.15.59.78.6-2.79.88,0,3.62-2.34,4.44.06-.18-.18-.54-.24-.4l-.1,1.39c.69.14.45,0,1.06-.1a1.07,1.07,0,0,1,.38,1.07c-.22-.72-1-.37-1.5-.26.22,0,.41.2.62.25-1.4.24,1.27.59.16,1.21l-.32-.18c.05.41.39.88.16,1.21-.81-.12-.22-.49-.83-.74-.14.53,1.06,1.53.14,1.72-.13-.29,0-.61-.15-.9-1.07.18-.86.32-1.14.65l0,0-.71.72.32-.13c1.73,1.35-.11,1.43.86,2.76-.91-1.28-.65-.4-1.48-.77-.32.13-.71.37-.91.19.54.66-.79.48,0,1.42-.29-.07-.19.43-.84.09,0,.6.52,0,.85.21.64,1.16-1.83,1.51-1,3.15.17,1.2,1,1.73,1.15,2.83-.56.16-.91-.62-.91-.62a1.08,1.08,0,0,0-.51,1.38c-.21-.19-.45-.16-.81-.13-.07.42.91.62.32,1a5.09,5.09,0,0,1-1-.79c.09.55.44,1.19.52,1.75-.53-.05-.63-.55-.88-.83,0,.61-.06,1.53.64,2l.39-.24c0,.2-.69-.14-.77-.33-.43-.67.5-.56.78-.49l.06.4c1.74.24.23-1.44.57-2.08l1.07.7-.73-1c.36,0,1,.09,1.11.49.75-.27-.26-.58.53-.76.12,0,.17,0,.2.09l-.18-.6c.22.18.86.22.59.45,1-.61-.39-1.69.62-1.69l0,.1c0-1.33-.82-.43-1.51-1.68l2.34.17L981,3874a.39.39,0,0,1,.56-.16c-.43-.67-.4-.06-.87-.52,1-.31.22-1.75,1.64-1.39-.58-.45-.71.38-.93-.41,1.54.35,0-.82.87-1.11.71.44.12.8,1,.51-1.17-.78.66-.94.58-1.48-1-.39-.07-1.13-.14-2,.33.17,1.08-1.23,1.7-1.8l.17.09c-1-.52-.53-1.17-.55-1.78.61.25.82.43,1,.82l.18-.5a1,1,0,0,1-.41-.82l.73.4c.2-.68-.43-1.66.39-2.33-.7-.31-2.25-.05-2.41-1.12.4.1,1.08.31,1.16.61,0-.1-.23-.4,0-.49l.52.6c.43-.29-.47-.41-.3-.69.56.2.48-.09.91.11,0,.1-.33.19-.15.39a1.55,1.55,0,0,1,1.18-.61c-.33-.08-.75-.27-.73-.55.2-.68.75,0,1.18-.27-.33-.3.22-.57-.61-.89.08-.19.48-.08.73-.08-.24-.47.47-1.64-.55-1.57l-.09.07a.64.64,0,0,0,0-.07h0c-.42-1.43,1.32-2.17,1.37-3.41l.27.1c-.07-.78.35-1.55-.08-2.24.08-.2.68-.28,1-.08,0-.58-.32-.75.41-1.32.3.69.49,0,.17.65.48-.57,1-.56.47-1.55a.59.59,0,0,0,1-.56l-.68.28a2.09,2.09,0,0,1,.38-1l.87.51c1.63-.94-1.06-3.14,1.23-3.48-.53-.6-.73.57-1.38,0,.35-.58,1.93-.74,2-.93.83-.67-1.08-1.3-.4-2.06-.38,0-1.31-.22-1.39-1,.35-.58,1.69-.26,1.81.23a.19.19,0,0,1-.27.15c0,.24.1.56.55.44l-.3-.2c.45-.19.72-1.05,1.2-.65-.15-.59-.48-.4-.78-.12.78-.62.47-1.24,1.09-1.95-.23.07-.67.05-.62-.08.86-1.06-.44-.76-.29-1.63.68-.28,1.16.6,1-.37.53-.38.93.21,1.13.51-.38-1,.93-1.25,1.2-1.63l.13.49a1,1,0,0,1,.07-.68l-.75,0c.2-.19.27-.38.55-.28-.35-.4-1.18-.22-1.61-.91.45-.19,0-1.07.9-.86-.65.86.93.22.78,1.09a.59.59,0,0,1,.23-.58c.11,0,.17.1.2.18,1.13-.64-.85-.79-.48-1.74.45.3,1,.12,1-.08-.15.39-.91-.12-1.16-.61.61-.48,0-.78.12-1.08l-.32.3c-.46-.31-.28-.59-.28-1.08.4.1.13.49.35.4-.7-.8,1.3-.75,1-1.64.45-.18.95.31,1.28.13-.38-1,1-.57.73-1.55-.76,0-.61.09-1.06-.7v1.46l-.67-1.18c-.15.38.12,1-.08,1.16-.4-.59-.25-.49-.88-.5,1.21-.17-.2-1.27.7-1.64l1.66.62c1.08-.66-.26-2,.6-3l-.43.28c-.61-.4.17-.77.05-1.26a1.82,1.82,0,0,0,1.24,0c-.42-.12.35-.86-.72-1.37l.93-.28c.65-.86-1.19-1.68-.66-2.55.5.5,1,.22,1.26,1,.12-.31.32-.56-.06-.7.41-.06-.44-1.14.19-1.23-.2-.22-.76-.48-.59-.81a.56.56,0,0,1,.27.1c-.27-.1-.17-.68-.9-.6,2.09-.33.85-2.73,2.64-3a13,13,0,0,1,.36-2.27c.15.1.28.11.18.2.82-.66-1.41-1.1-.48-1.86,1.08-.17.3.69.75.51,1.88.52.17-1.27,1.48-1.53l0,.2c.8-.28-.25-1.47.17-2.24a.62.62,0,0,0,.28.1,4.21,4.21,0,0,1-.64-2.94c.63.51.25.5,1,.61,0-.39-1.2-.32-1.15-1.09a3.23,3.23,0,0,1,1.8-.26l-.2.68c1.13,0,.28-.87.58-1.16l.42.21c.23-1.07-.88-1.48-.4-2.55h-.38c-.88-1,.8-.28.2-1.17l1.18.22a9.53,9.53,0,0,1-.53-2.54,6.82,6.82,0,0,1,1.11,2.36c.15-.39.39-1.35-.08-1.76.05.2.25.5,0,.59a2.2,2.2,0,0,1-.6-2.35c2.11.92,1.27-1.83,3.15-1.78-.3-1.67,1.33-2.61,1.78-4.25-1.89,0,.12-.49-1.64-1,0-.42.1-.55.23-.54l1.44-.76c.6-.08.25.49.65.6.43-.77.85-.08,1.51-.45-.66-.11-.78-.61-.38-1l-1,.37c-.51-1.47,1.8-.46,1.31-1.94l.41.56c-.11-.7.8-2.17-.38-3.25.24,0,.76,0,.79.3.72-1.33-.34-3.67.91-4.46l.38.26c0-.3-.62-.74-.08-.92.17.08.38.26.45.15-.09-.19-.48-1-.11-1.23l.36.47c1-1.17-.39-2.53-.26-3.78a2.14,2.14,0,0,0,2.43-1l.17.09c.73-1.55,0-3.1,0-4.75,1.68-.44,1.7-2.92,3-4.13-.31.15-1-.38-1-.69.38-.26-.51-1.27.61-.8l-.07.11c1.21.14,1.17-.68,1.41-1.22l-1.46-.63c2.69-.68.58-4.11,2.81-4.2-.24-.49-.08-.92-.33-1.41l.8.31a6.31,6.31,0,0,0,1.07-2.62l.48.45c.3-.66-2-1.69-1.81-2.34l1.26.25c.41-1.2,1.89-2,1.23-3.58.17.08.5.24.48.45.24-.54,1.59-1.86-.12-2.25,1.07.37.55-1.19.31-2l.75.39c-.81-.91-1.08-1-1.08-1.88.16-.14.68.07.4.24.62-.45-.58-.74.1-1.31l.4.45c.29-.59,0-.64-.46-1.19-.18-.5.61-1.09,1.36-.92-.41-.24-.86-.79-.53-1.07a.62.62,0,0,1,.46.33c.91-.83-.36-1.85.67-2.28a.89.89,0,0,0,.51,0,4.77,4.77,0,0,1-.63,1.37c.73.26,1.09-.35,1.9.53-.35-.72-1.21-2.05-.64-2.57h.28l.06.1a.37.37,0,0,0,0-.45,1.23,1.23,0,0,0,.41-.45c.63.14.59-.64.74-1-.8-.26-.52-.65-1.32-.48.08,0,.07.09,0,.32a.32.32,0,0,0,0,.17l-.06,0c-.06.22-.14.51-.24.83-.31-.4-.55-.8,0-1-.45-.35-.91-.73-1.12-.92,1.27-.05,2.18-.7,2.91-.57-.08-1.16.56-2.47-.7-3.64-.09-.35.54-.17.81-.19.09.22,0,.4.18.57-.17-.71.46-1.74-.53-2.25.73-.55.81.75,1-.3l.27.25c2.37-1.34-1.52-4.12,1.4-5.49a.62.62,0,0,1-.46.12c1.83-2.11.94-5.37,3.31-7.25.55-.58-.09-.9-.44-1.5l.91.16-.73-1.07c-.35-1.28,2.73-1,1.83-2.79l-.63,0c.28-.42.19-1.59.82-1.27-.08-.09-.54-.37-.17-.44l.45.14-.36-1.41c.65-.76,1.72.78,2.28-.47,0-.54-.81-1.83-1.17-1.76a.77.77,0,0,1-.91.24l-.07-.52c-1.29-.55-2.51-1.38-3.82-.63l.53,1h-.72l.19-.64c-.73.14-.28.56,0,.94a1.31,1.31,0,0,0-.82.06l1,1.19c-.54-.1-.9-.7-1.36-.31.46.56,1.27.09,1.45.8-.73.14-1.17-.14-.82.46a.74.74,0,0,1-.63-.45c.27.52-.18,1.05.44,1.5-.87.11-.26,1.33-1.49.84a2.25,2.25,0,0,1,.66,1.38c-1.26-1.17-.55,1.25-2.08.51,1.17.95,0,1.89.43,3-.09-.09-.27-.25-.18-.3-.28.42-.73.41-1.09.62,1.09.45,1.08,1.27,1.62,1.9-1.27.18-1.17-.81-2.26-1,.9.29.53,1.3,1.35,1.38-.82.2-.45.26-1.45.15,1.35.58.09.49.81,1.16-.91.38-1.36-.31-1.19.53C1032.81,3716.33,1032.54,3715.54,1032.54,3715.54ZM1029,3732.8h0c0-.15.06-.27.07-.35C1029.05,3732.51,1029,3732.62,1029,3732.8Zm-.48,1.38a3,3,0,0,0,.24-.59c.3.06.56.21.49.34C1029.1,3733.79,1028.82,3734.06,1028.52,3734.18Zm6.55-.93c0,.26-.15.28-.33.25a1.55,1.55,0,0,0,0-.42.47.47,0,0,1-.09-.06A2.39,2.39,0,0,1,1035.07,3733.25Z"/><path class="cls-14" d="M1034.17,3732.48a.29.29,0,0,1,0-.11,1.14,1.14,0,0,0-.22.07l.22.17Z"/><path class="cls-14" d="M987.82,3857l0,0-.14,0A.4.4,0,0,1,987.82,3857Z"/><polygon class="cls-14" points="1020.12 3752.66 1020.32 3752.73 1020.19 3752.55 1020.12 3752.66"/><path class="cls-14" d="M982.35,3863.58a.53.53,0,0,0-.24,0A.54.54,0,0,0,982.35,3863.58Z"/><path class="cls-14" d="M981,3866.8l-.45.36A1.92,1.92,0,0,0,981,3866.8Z"/><path class="cls-14" d="M979.68,3869.18a2.09,2.09,0,0,0,.33.17h0Z"/><path class="cls-14" d="M993.25,3828.76a.4.4,0,0,0,0-.11C993.17,3828.37,993.18,3828.54,993.25,3828.76Z"/><path class="cls-14" d="M990.79,3841.36a2.37,2.37,0,0,1-.24-.52C990.41,3841,990.34,3841.19,990.79,3841.36Z"/><path class="cls-14" d="M997.11,3815.1h0l0-.08Z"/><path class="cls-14" d="M990.76,3840.29a.46.46,0,0,0-.21.55C990.67,3840.68,990.82,3840.51,990.76,3840.29Z"/><path class="cls-14" d="M975.37,3880l-.07.11.12.06Z"/><path class="cls-14" d="M975.42,3880.14l0,.17A.11.11,0,0,0,975.42,3880.14Z"/><path class="cls-14" d="M975.56,3880.67l-.1-.36A.26.26,0,0,0,975.56,3880.67Z"/><path class="cls-14" d="M977,3876.77l-.28-.14A1.76,1.76,0,0,0,977,3876.77Z"/><path class="cls-14" d="M977.23,3875.72c-.15.22-.83.39-.77.79l.21.12C976.3,3876.31,977.63,3876.13,977.23,3875.72Z"/><path class="cls-14" d="M982.32,3872.78l-.54.76c.36,0,.84-.08.78.33C983.86,3873.13,981.79,3873.84,982.32,3872.78Z"/><path class="cls-14" d="M983.71,3870.3c0,.51.45.16.61.24C984.15,3870.15,984.11,3870.06,983.71,3870.3Z"/><path class="cls-14" d="M990.6,3851.26l.71.31C991.33,3851.18,991,3851.46,990.6,3851.26Z"/><polygon class="cls-14" points="988.19 3846.27 987.62 3846.45 988.22 3846.86 988.19 3846.27"/><polygon class="cls-14" points="994.11 3845.98 994.15 3846.17 994.1 3845.49 994.11 3845.98"/><path class="cls-14" d="M1005.41,3813.91l-.92-.21C1004.56,3814,1005.54,3814.4,1005.41,3813.91Z"/><path class="cls-14" d="M1009.5,3799.78c.5,0,.93-.28.58-.67C1009.9,3799.4,1009.44,3799.58,1009.5,3799.78Z"/><polygon class="cls-14" points="1025.92 3758.9 1026.12 3759.28 1026.06 3758.67 1025.92 3758.9"/><path class="cls-14" d="M1003.84,3866c-.08-.15-.34-.44-.36-.33l.37.56Z"/><path class="cls-14" d="M1002.6,3865.47a3.53,3.53,0,0,0,.83,1.25c-.32-.55-.14-.36-.53-1,0-.12.25.06.4.26-.09-.15.2,0,0-.33-.42-.32-.55-.24-.39.19A1.48,1.48,0,0,1,1002.6,3865.47Z"/><path class="cls-14" d="M995.4,3870.86h.1A.12.12,0,0,0,995.4,3870.86Z"/><path class="cls-14" d="M991.46,3874.69c0-.05,0-.1-.06-.15S991.41,3874.65,991.46,3874.69Z"/><path class="cls-14" d="M990.32,3874.82h.07C990.33,3874.78,990.29,3874.77,990.32,3874.82Z"/><path class="cls-14" d="M995.4,3870.86l-.25,0C995.3,3871,995.32,3870.88,995.4,3870.86Z"/><path class="cls-14" d="M1002.71,3867.48a.45.45,0,0,0-.06-.19.31.31,0,0,1,0,.1Z"/><path class="cls-14" d="M996.72,3868.7l0,0-.16-.22Z"/><path class="cls-14" d="M998,3867.3s.32.43.48.62a1,1,0,0,1-.2-.35A3.8,3.8,0,0,0,998,3867.3Z"/><path class="cls-14" d="M1000.9,3866v-.1S1000.89,3866,1000.9,3866Z"/><path class="cls-14" d="M995.68,3869.59l-.16-.13Z"/><path class="cls-14" d="M964.35,3860.87l.09,0Z"/><polygon class="cls-14" points="966.13 3857.93 966.17 3857.95 966.45 3857.81 966.13 3857.93"/><path class="cls-14" d="M988.69,3875.35h0C988.69,3875.28,988.68,3875.3,988.69,3875.35Z"/><path class="cls-14" d="M976.61,3881.34c.06.52-.29.61-.17,1.19A3.52,3.52,0,0,0,976.61,3881.34Z"/><path class="cls-14" d="M1002.62,3867.45l0,.05S1002.62,3867.48,1002.62,3867.45Z"/><path class="cls-14" d="M976.44,3882.53h0v0Z"/><path class="cls-14" d="M986,3877.69l.16.19A1,1,0,0,0,986,3877.69Z"/><path class="cls-14" d="M988.71,3876.8h-.1C988.67,3876.81,988.7,3876.81,988.71,3876.8Z"/><path class="cls-14" d="M985.19,3879.09c-.06,0-.11-.08-.12,0l0,.06C985.1,3879.08,985.11,3879,985.19,3879.09Z"/><path class="cls-14" d="M983.83,3879.81l.08.09,0-.05Z"/><path class="cls-14" d="M965.53,3865l.5-.13C965.63,3864.93,965.47,3864.73,965.53,3865Z"/><path class="cls-14" d="M1002.5,3867.24c.08.11.12.17.12.21a.14.14,0,0,0,0-.06A1.06,1.06,0,0,0,1002.5,3867.24Z"/><path class="cls-14" d="M987.26,3883l-.28.05A.56.56,0,0,0,987.26,3883Z"/><path class="cls-14" d="M967.39,3876.76l-.09,0S967.32,3876.77,967.39,3876.76Z"/><path class="cls-14" d="M986.3,3883.52a1.09,1.09,0,0,0-.31-.27s0,.08,0,.14Z"/><path class="cls-14" d="M966,3864.86Z"/><path class="cls-14" d="M964.49,3863.56c0,.21.73,0,1.16-.06.24.23-.52.21-.88.36.22.13.91.15.9.27a1,1,0,0,1-.32.06c.61.08.11.5.86.62l-.18.05c.37-.08.74-.13,1-.16,0,.11.48.14,0,.24,0-.07-.19-.05-.34-.06l.22.08c-.68.18-.26-.12-.77-.06.25.18.85.37.67.56-.67.1-.27-.36-.84-.08l.23-.28c-1.05.31,0-.15-1.07.15-.16.34.39.31.23.66.38,0,.55-.08.93,0,.72.42-1.67.52-.74.79.46.05,1.32,0,.89.3l-.77,0c-.05.33,1.11.1.62.49-.3,0-.27-.24-.36-.19-.59.27.45.13.46.3l-.68.09c.14.33.66.69.81,1.08a1.2,1.2,0,0,0-.62.05c.37.47,0,1.09-.36,1.63l.6.13s-.25.11-.37.07c-.2.22.37,0,.61,0,.05.11-.32.19-.5.13.54.31,1.17.86.6,1.31l-.18-.05c-.19.33,1.24.15.74.49l-.11,0c-.17.67.51,1.23-.26,1.91.84-.11-.21.72.95.46-.47.51-.7.46-.93,1.09,0,.15.75,0,.93.11l-.58.19.69,0-.66.36.21.11c0-.08.21-.23.38-.28.35.14-.19.73-.48.86.23.13.47.26.72.37a.91.91,0,0,1-.54,0c.72.06-.57.31.08.36a1.74,1.74,0,0,1,.47-.16.46.46,0,0,0,.11.76l-.41.14c.11.51.59.73.81,1.17.09-.25.76-.55.89-.46l-.55.35c.4-.11.15-.24.67-.31,0,.19-.6.46-.83.46l.3.09a4.2,4.2,0,0,1-.5.21c.39-.11-.39.66.29.44l-.16.11c.25.44.57.53.82.88.48-.3.47-.09.92-.24,0,.35-.14.9.15,1.19.4.05.42-.23.76-.35-.39.34-.09.62-.51.7a2,2,0,0,0,1.25.55c.09-.2.1-.32.25-.42s0,.32-.14.5l-.06,0c.51-.06.57.47.75,1s.44,1,1,.66l-.05,0a6.8,6.8,0,0,0,.8-.26c.25.18-.3.3-.2.67a.85.85,0,0,1,1-.06c.23.13.47.27.78,0,.12.79.55.79,1,.71s.8-.27,1.13.18l-.06-.35c.11-.36.19.18.31.25-.05-.27-.19-.3-.12-.5,1.09-.56,2.43,0,3.61-.05.42-.05-.45-1.8.31-1.18l.12.66c.43-1,1.44-.57,1.82-1.49,0,.16.1.34,0,.36.34.38.52-.22.35-.57.12,0,.18.31.33.46s.08-.72.36-.32a.29.29,0,0,1,0,.2c0-.25.44-.15.12-.6.36.12.35-.44.69-.25-.16-.62.55,0,.19-.75.4.81.76.41.71,0,.08.27.27.18.39.54.17-.1.25-.33,0-.72.85.76.19-1.13,1.07,0a8.47,8.47,0,0,1,.88-1.76c.48.76-.44.4.09,1.19.24-.61,0-1.41.57-1.52.18,0,.17.36.22.51.21-.58.85-.54.91-1.2a.46.46,0,0,1,.08.25c0-.08.25,0,0-.34v.14c-.48-.37-.5-1.18-.69-1.42.63,1,.51-.06,1.29,1.23a1,1,0,0,0-.26-.5c.11,0,.24.11.37.41.1-.39-.27-.64,0-.82a3.39,3.39,0,0,1,.27.44c-.14-.39-.3-.77,0-.81.07.1.2.2.14.24.27-.33-.21-1.23.37-1.27.52.7.31.09.86.6v-.33l-.32-.18c.15-.14-.12-.65.18-.62l.12.33.17-.38-.36,0c-.14-.41-.7-.63-.36-.68,0,.09.14-.15.54.08h0c-.11-.24-.22-.48,0-.47s.59.58.72.67c-.4-.5.19-.47-.22-1a2.61,2.61,0,0,0,.45.44l-.32-.4a.8.8,0,0,1,.47.3c.26-.15-.77-.57-.24-.54a.47.47,0,0,1,.1.18c.39-.12.19-.7.58-.77.62.43,0,.33.5.67.19-.42-.07-1.29.35-1.48h-.11c-.76-.75.6.11.37-.38a2,2,0,0,0,.31.36c.32-.11.2-.62.25-1.17l.17.23c.29,0,.4-.24.62-.28-.16-.23-.06-.28-.39-.5,1.5.65.15-1.36,1.43-.82,0,0,.07.27.1.23l.12-.48c-.35-.3-.24-.15-.55-.34s-.23-.47-.15-.55c.08.36.53.52.77.65-.11-.09-.2-.22-.31-.32.74.42-.63-.69,0-.51l.16.18c0-.16-.15-.47,0-.5.41.34.08.26.38.58.11-.14-.45-1,0-.69,0,.16,0,.23,0,.39.56.33.46.2.62.19h.39l-.17-.07c-.81-1.16.14-.49-.28-1.36.39.83.31.4.71.85.17.08.38.14.47.29-.23-.45.43.13.09-.53.14.14.12-.08.43.3,0-.23-.26-.22-.41-.41-.25-.68,1,.17.7-.78,0-.51-.39-1.05-.35-1.51a1.16,1.16,0,0,1,.4.6c.32.1.38,0,.36-.3a1.27,1.27,0,0,0,.39.37c.06-.12-.4-.59-.08-.49a6.82,6.82,0,0,1,.41.68c0-.23-.12-.61-.11-.85a1.68,1.68,0,0,1,.36.66,1.09,1.09,0,0,0-.14-1l-.22-.07c0-.06.33.33.35.44.16.42-.29,0-.42-.14v-.17c-.83-.8-.24.43-.46.53l-.46-.69.26.67c-.18-.13-.51-.46-.5-.62-.4-.21.08.31-.33.06a.21.21,0,0,1-.09-.11l0,.29c-.09-.15-.41-.42-.25-.4-.55-.17,0,.79-.45.39v-.06c-.12.49.37.49.62,1.22l-1.15-1,.37.48s-.14,0-.29-.16c.17.42.2.18.4.54-.53-.28-.24.56-.93-.13.26.39.38.14.44.52-.75-.73-.06.3-.52.07-.33-.43,0-.34-.47-.57.54.74-.4.11-.4.34.5.54,0,.46-.06.82-.16-.19-.63.06-1,0l-.08-.09c.48.55.2.63.19.87a1.62,1.62,0,0,1-.48-.67l-.12.13a.62.62,0,0,1,.17.46l-.36-.42c-.14.19.13.79-.34.75.36.36,1.19.82,1.22,1.28-.21-.18-.56-.5-.58-.64,0,0,.1.23,0,.18l-.25-.41c-.24,0,.23.32.12.37-.28-.28-.26-.14-.47-.37,0,0,.18.05.1-.09a.92.92,0,0,1-.66-.19c.17.15.38.37.36.47s-.4-.27-.64-.31c.16.23-.15.14.28.55,0,0-.26-.13-.39-.22.11.26-.33.46.22.79h0s0,0,0,0h0c.17.69-.8.37-.87.83l-.14-.13c0,.32-.25.47,0,.88,0,.05-.38-.12-.53-.3,0,.23.14.39-.27.37-.14-.36-.27-.16-.07-.31-.28.06-.55-.11-.3.43-.33-.4-.59-.29-.55-.11l.37.12c0,.14-.13.19-.23.24l-.46-.48c-.91-.19.48,1.53-.76.89.26.4.41,0,.74.48-.21.1-1.06-.38-1.11-.34-.46,0,.54.85.15.9.2.13.69.54.7.86-.21.09-.9-.5-1-.73,0-.05.09,0,.15,0a.4.4,0,0,0-.28-.35l.16.18c-.25-.09-.42.13-.66-.19a.37.37,0,0,0,.41.32c-.43-.05-.29.29-.64.31.12.07.34.23.31.26-.48.07.2.44.08.71-.36-.16-.57-.66-.55-.26-.28-.06-.45-.43-.54-.61.15.5-.52.08-.68.1l0-.22c0,.13,0,.17-.06.2l.37.31a.31.31,0,0,1-.29-.12c.15.28.57.54.74,1-.23-.11-.06.4-.49-.06.37,0-.44-.45-.32-.7,0,.09,0,.13-.14.11a.28.28,0,0,1-.09-.14c-.57-.25.37.62.13.81-.19-.29-.48-.47-.47-.39s.42.42.51.7c-.33-.09,0,.3-.15.33l.18,0c.19.3.08.33,0,.5-.18-.21,0-.22-.13-.29.26.59-.67-.3-.58.17-.22-.14-.41-.53-.57-.61.08.51-.49-.26-.47.19.34.35.28.25.4.73l.15-.51.18.72c.11-.07.05-.4.16-.37.12.39.06.28.34.57-.56-.48,0,.54-.5.26l-.66-1c-.53-.28-.08.8-.58.76l.22.11c.21.42-.17.18-.18.41a2.23,2.23,0,0,0-.52-.61c.16.25-.25.12.12.82l-.41-.36c-.38,0,.25,1.16-.09,1.2-.13-.42-.38-.6-.36-1-.08,0-.2,0-.07.26-.17-.19,0,.6-.26.32,0,.17.23.54.11.57a.91.91,0,0,1-.09-.18c.09.17,0,.32.26.66-.86-.94-.76.51-1.49-.31a2.35,2.35,0,0,1-.52.56c0-.11-.08-.18,0-.16-.41-.21.33,1.1-.14.87-.42-.51,0-.39-.19-.56-.59-1.16-.28.33-.79-.27v-.09c-.33-.33-.16.62-.45.65a.68.68,0,0,0-.08-.18,1.65,1.65,0,0,1-.31,1.29c-.12-.5,0-.29-.24-.75-.08.11.35.75.19,1a3.06,3.06,0,0,1-.65-.9l.19-.11c-.37-.61-.25.13-.4.06l-.1-.3c-.26.21,0,.94-.34,1l.11.21c.07.81-.3-.36-.3.25l-.29-.73a3.38,3.38,0,0,1-.38,1.06,6.57,6.57,0,0,1,.18-1.33c-.12,0-.36.16-.32.56,0-.09,0-.29.11-.19,0,.64-.09,1-.34,1-.29-1.5-.71-.25-1-1.41-.3.6-.7-.18-1-.12,0,1.2-.1,0-.2,1.25-.11.07-.15,0-.15,0a5.27,5.27,0,0,1-.16-.77c0-.36.12-.25.17-.52-.14-.12,0-.52,0-.86-.08.43-.2.6-.23.42a5.44,5.44,0,0,0,0,.57c-.43.58.12-1-.27-.48l.2-.34c-.18.18-.27-.13-.88.66a1.57,1.57,0,0,1,.29-.48c-.07-.14-.33,0-.59.06s-.5,0-.39-.27l.23-.2c-.11,0-.48.33-.32.06.09-.09.23-.2.22-.23s-.5.24-.43.05l.3-.17c.08-.49-1,.13-1.35-.05a1.69,1.69,0,0,0,.81-1.12l.11-.07c-.15-.42-1-.27-1.57-.53.71-.7-.14-1.09.15-1.74a1.38,1.38,0,0,1-.73.26c.12-.17-.68,0,.06-.34v0c.68-.4.41-.5.36-.65l-1,.39c.6-.5.39-.7.15-.9s-.5-.36.11-.68c-.28,0-.31-.15-.59-.18l.54-.16a.78.78,0,0,0-.13-.78l.41,0c0-.19-1.64.13-1.72-.06l.81-.24c-.09-.36.56-.84-.24-1.08.12,0,.36,0,.4,0,0-.18.47-.74-.67-.52.74-.1,0-.38-.34-.56l.56,0c-.73-.08-.92-.07-1.15-.29.07-.07.44-.1.31,0,.27-.23-.54-.1-.28-.37l.37.06c0-.21-.17-.17-.59-.25-.24-.11.1-.4.6-.48-.3,0-.72-.07-.59-.21a.76.76,0,0,1,.37,0c.35-.37-.69-.46-.16-.74a1,1,0,0,0,.33-.07c0,.28,0,.5-.05.49.51,0,.58-.27,1.3-.15-.4-.15-1.26-.39-1-.63l.17,0,.06,0c.05-.05,0-.1-.09-.13.08-.08.14-.13.14-.19.42-.06.21-.27.22-.39-.56,0-.48-.11-.93.07,0,0,.07,0,.1.09a.1.1,0,0,0,.06,0h0q0,.11.06.27c-.3-.07-.54-.14-.24-.29l-.92-.09c.78-.21,1.18-.54,1.65-.62-.33-.32-.26-.81-1.34-.94-.14-.09.29-.14.46-.19s.1.12.25.13c-.29-.17-.16-.58-.9-.56.31-.28.69.08.54-.26l.23,0c1.09-.84-2-.89-.61-1.85a.47.47,0,0,1-.24.13,1.35,1.35,0,0,0-.17-1.33,1.27,1.27,0,0,1,0-1.41c.14-.31-.33-.21-.71-.25l.56-.22-.73-.05c-.6-.17,1.18-1.09.11-1.22l-.36.2c0-.18-.4-.4,0-.55-.08,0-.41.11-.25,0l.29-.13-.66-.16c.07-.38,1.16-.47,1-.94a1.77,1.77,0,0,0-1.2.1c0,.07-.1.25-.38.39l-.21-.06a5.9,5.9,0,0,0-2.18,1.32l.6,0-.38.25-.1-.15c-.34.27,0,.17.29.13a1.75,1.75,0,0,0-.41.29l.9-.15c-.32.16-.7.2-.83.41.43-.07.71-.42,1-.36-.35.26-.68.36-.29.34a.93.93,0,0,1-.49.13c.31,0,.21.23.7.11-.45.29.26.32-.58.61a1.57,1.57,0,0,1,.8,0c-1.07.15.07.39-1,.68.95-.14.54.36,1.11.46-.07,0-.23,0-.19,0,0,.16-.3.27-.45.39a3.71,3.71,0,0,1,1.48,0c-.7.34-.92.09-1.61.31.61-.15.68.15,1.18,0a2.55,2.55,0,0,1-.82.36c1-.18.19.08.8.08-.43.28-.88.21-.55.37A1,1,0,0,1,964.49,3863.56Zm2.24,5.14h0l0-.11Zm0,.47a.44.44,0,0,0,0-.2c.19,0,.39,0,.38,0S966.93,3869.09,966.77,3869.17Zm3.81-1.28c.09.07,0,.1-.14.12a.33.33,0,0,0-.07-.13h.21Z"/><path class="cls-14" d="M969.84,3867.81l-.05,0-.12,0,.18,0Z"/><path class="cls-14" d="M995.51,3870.87h0l.07,0Z"/><polygon class="cls-14" points="966.92 3876.29 967.05 3876.24 966.92 3876.24 966.92 3876.29"/><path class="cls-14" d="M998.71,3870.33a.29.29,0,0,0,.12.07Z"/><path class="cls-14" d="M999.59,3869.65l.25,0A.66.66,0,0,0,999.59,3869.65Z"/><path class="cls-14" d="M1000.39,3869.26l-.15-.19h0Z"/><path class="cls-14" d="M991.1,3879.71a.07.07,0,0,0,0,.05C991.09,3879.89,991.11,3879.82,991.1,3879.71Z"/><path class="cls-14" d="M993.36,3875.79a1.37,1.37,0,0,1,.1.28C993.54,3876,993.59,3876,993.36,3875.79Z"/><path class="cls-14" d="M987.29,3883h0l0,0Z"/><path class="cls-14" d="M993.32,3876.2c.13,0,.16,0,.14-.13S993.3,3876.1,993.32,3876.2Z"/><path class="cls-14" d="M1003.32,3867h0l-.05-.07Z"/><path class="cls-14" d="M1003.31,3867v-.08S1003.27,3866.9,1003.31,3867Z"/><path class="cls-14" d="M1003.28,3866.7l0,.17S1003.37,3866.83,1003.28,3866.7Z"/><path class="cls-14" d="M1002.29,3867.55l.12.17A1.44,1.44,0,0,0,1002.29,3867.55Z"/><path class="cls-14" d="M1002.07,3867.82c.09,0,.44.2.44,0l-.1-.13C1002.57,3868,1001.9,3867.51,1002.07,3867.82Z"/><path class="cls-14" d="M999.31,3866.91l.33-.08c-.18-.12-.43-.29-.36-.42C998.56,3866.18,999.66,3866.72,999.31,3866.91Z"/><path class="cls-14" d="M998.42,3867.3c.05-.18-.22-.23-.3-.32C998.19,3867.19,998.2,3867.25,998.42,3867.3Z"/><path class="cls-14" d="M993.79,3872.1l-.37-.35C993.39,3871.89,993.57,3871.88,993.79,3872.1Z"/><polygon class="cls-14" points="994.95 3874.79 995.26 3874.91 994.95 3874.56 994.95 3874.79"/><polygon class="cls-14" points="991.73 3872.92 991.71 3872.83 991.72 3873.1 991.73 3872.92"/><path class="cls-14" d="M983.85,3879.24l.32.55C984.19,3879.65,983.88,3879,983.85,3879.24Z"/><path class="cls-14" d="M980,3881.66c-.16-.28-.33-.44-.3-.12C979.78,3881.55,980,3881.75,980,3881.66Z"/><path class="cls-14" d="M972.09,3875.73h.23l-.22-.08A.25.25,0,0,0,972.09,3875.73Z"/></g></svg>